<?xml version="1.0" encoding="utf-8"?>
<!-- Generator: Adobe Illustrator 22.0.0, SVG Export Plug-In . SVG Version: 6.00 Build 0)  -->
<svg version="1.1" id="Layer_1" xmlns="http://www.w3.org/2000/svg" xmlns:xlink="http://www.w3.org/1999/xlink" x="0px" y="0px"
	 viewBox="0 0 224.9 219.1" style="enable-background:new 0 0 224.9 219.1;" xml:space="preserve">
<style type="text/css">
	.puzzle_1_1{fill:none;stroke:#008CF5;stroke-width:3;stroke-miterlimit:10;}
	.puzzle_1_1_{clip-path:url(#SVGID_2_);fill:#F0F8FF;}
</style>
<path class="puzzle_1_1" d="M100.2,213.4c1.2,0,2.4-0.1,3.6-0.2c6.6-0.8,12.7-4.5,16.6-10.2c3.9-5.6,5.2-12.5,3.7-18.9
	c-1.5-6.3-4.8-9.1-7.9-11.8c-2.1-1.8-4.2-3.6-5.5-6.3l0-0.1c-0.1-0.4-0.1-0.8,0-1c0.2-0.3,0.5-0.4,1-0.5l51.7-3.3
	c4.8-0.3,8.5-4.5,8.2-9.3l-3.2-49.4c0-0.6,0.2-0.9,0.2-1c0-0.1,0.2-0.2,0.6-0.2c0.2,0,0.4,0,0.7,0.1c2.9,0.9,5,2.8,7,4.6
	c3.4,3.1,7.3,6.5,15.8,6.5c0.7,0,1.5,0,2.2-0.1c6.3-0.4,11.7-3.1,15.5-7.8c4.3-5.1,6.2-12.3,5.3-19.6C214.2,73.2,203.8,64,191.9,64
	c-1.8,0-3.7,0.2-5.4,0.7c-6.2,1.5-9,4.8-11.7,7.9c-1.9,2.2-3.7,4.3-6.6,5.6l-0.1,0c-0.1,0.1-0.3,0.1-0.5,0.1c-0.6,0-0.7-0.5-0.8-0.9
	l-3.6-56c-0.3-4.6-4.2-8.3-8.8-8.3l-0.5,0L25,21.5c-2.4,0.2-4.9,1.5-6.8,3.7c-1.9,2.2-2.9,4.8-2.7,7.2l8.3,128.8
	c0.3,5,5.5,8.1,10.1,8.1c0.1,0,0.5,0.2,0.7,0.2l52.4-3.2h0.1c0.1,0,0.3-0.2,0.4,0c0.1,0.2,0.1,0.5,0,1l0,0.1
	c-0.9,2.8-2.8,4.9-4.6,6.9c-3.3,3.7-7.1,8-6.4,18C77.2,204.8,87,213.4,100.2,213.4z"/>
<g>
	<defs>
		<path id="SVGID_puzzle_1_1" d="M100.2,209.4c1,0,2.1-0.1,3.1-0.2c5.5-0.7,10.5-3.8,13.8-8.5c3.2-4.7,4.3-10.4,3.1-15.7
			c-1.2-5-3.7-7.2-6.7-9.7c-2.3-2-4.8-4.2-6.5-7.7l-0.1-0.2c-0.6-1.6-0.5-3.3,0.3-4.7c0.9-1.4,2.4-2.2,4.2-2.3l51.7-3.3
			c2.6-0.2,4.6-2.4,4.4-5.1l-3.2-49.4c-0.1-2.1,0.8-3.4,1.3-4c0.9-1,2.1-1.5,3.5-1.5c0.9,0,1.6,0.2,1.9,0.3c3.7,1.2,6.2,3.5,8.5,5.4
			c3.3,3,6.2,5.5,13.1,5.5c0.6,0,1.3,0,2-0.1c5.2-0.3,9.6-2.5,12.7-6.3c3.6-4.3,5.2-10.3,4.4-16.6c-1.2-9.8-9.9-17.4-19.8-17.4
			c-1.5,0-3,0.2-4.5,0.5c-5,1.2-7.1,3.7-9.6,6.6c-2,2.3-4.3,5-8,6.6l-0.2,0.1c-0.7,0.3-1.4,0.4-2.1,0.4c-2.6,0-4.6-1.9-4.8-4.6
			l-3.6-56c-0.2-2.5-2.3-4.5-4.8-4.5l-0.2,0L25.3,25.5c-1.3,0.1-2.9,1-4,2.3c-1.2,1.4-1.8,3-1.8,4.3L27.8,161
			c0.2,2.6,3.3,4.4,6.1,4.4c0.1,0,0.3,0,0.4,0l52.5-3.4l0.2,0c1.5,0,2.8,0.7,3.7,1.8c0.9,1.3,1.1,2.8,0.6,4.6l-0.1,0.2
			c-1.2,3.7-3.4,6.2-5.4,8.4c-3.2,3.6-6,6.7-5.4,15.1C81,202.3,89.2,209.4,100.2,209.4z"/>
	</defs>
	<clipPath id="SVGID_puzzle_1_1_">
		<use xlink:href="#SVGID_puzzle_1_1"  style="overflow:visible;"/>
	</clipPath>
	<rect x="9.5" y="5.8" class="puzzle_1_1_" width="206" height="207"/>
	<g transform="matrix(1 0 0 1 -9.536743e-07 0)" style="clip-path:url(#SVGID_puzzle_1_1_);">
		
			<image style="overflow:visible;" width="200" height="200" id="sermion-img-puzzle-3.1" xlink:href="img/svg/DFCBF77D.png"  transform="matrix(0.9983 -5.836975e-02 5.836975e-02 0.9983 9.8335 17.8257)">
		</image>
	</g>
</g>
</svg>
