<?xml version="1.0" encoding="utf-8"?>
<!-- Generator: Adobe Illustrator 21.1.0, SVG Export Plug-In . SVG Version: 6.00 Build 0)  -->
<svg version="1.1" id="Capa_1" xmlns="http://www.w3.org/2000/svg" xmlns:xlink="http://www.w3.org/1999/xlink" x="0px" y="0px"
	 viewBox="0 0 70 70" style="enable-background:new 0 0 70 70;" xml:space="preserve">
<style type="text/css">
	.st0{fill:#EA3910;}
</style>
<g>
	<g>
		<path class="st0" d="M55.6,25.7c-0.1-0.5-0.7-0.9-1.2-0.8c-0.5,0.1-0.9,0.7-0.8,1.2c0.2,1.1,0.4,2.3,0.4,3.4
			c0,3.5-1.2,6.9-3.4,9.7c-3.4,4.4-5.4,9.6-5.7,15.2h-0.9h-0.9v-2.1c0-0.6-0.4-1.1-0.9-1.3l1.9-14.1c0.1-0.4-0.1-0.9-0.5-1.1
			c-0.2-0.2-0.5-0.2-0.7-0.2c-0.2,0-0.3,0-0.5,0.1l-2.4,1l-2.4-1c-0.3-0.1-0.7-0.1-1,0l-2,1l-2.7-1.1c-0.4-0.2-0.9-0.1-1.2,0.2
			c-0.3,0.3-0.5,0.7-0.5,1.1l0.8,5.7c0.1,0.6,0.6,0.9,1.1,0.9c0.6-0.1,0.9-0.6,0.9-1.1L32.4,38l1.9,0.7c0.3,0.1,0.6,0.1,0.8,0
			l2.1-1.1l2.5,1.1c0.3,0.1,0.5,0.1,0.8,0l1.4-0.6l-1.7,12.8h-6.1l-0.5-3.8c-0.1-0.6-0.6-0.9-1.1-0.9c-0.6,0.1-0.9,0.6-0.9,1.1
			l0.5,3.6c-0.5,0.2-0.9,0.7-0.9,1.3v2.1h-0.9h-0.9c-0.3-5.5-2.3-10.8-5.8-15.4c-2.1-2.8-3.2-6.1-3.3-9.5c0-8.9,7.5-16.2,16.7-16.3
			c0,0,0.1,0,0.1,0c6.2,0,11.9,3.3,14.8,8.5c0.3,0.5,0.9,0.7,1.4,0.4c0.5-0.3,0.7-0.9,0.4-1.4c-3.3-5.9-9.7-9.6-16.6-9.6
			c0,0-0.1,0-0.1,0c-10.3,0.1-18.7,8.3-18.7,18.3c0,3.9,1.3,7.6,3.7,10.8c3.3,4.3,5.1,9.3,5.4,14.5c0,0.9,0.8,1.7,1.8,1.7h0.1v8.4
			c0,1.8,1.1,3.4,2.8,4.1c1.6,0.7,3.4,1,5.1,1s3.5-0.3,5.1-1c1.7-0.7,2.8-2.3,2.8-4.1v-8.4h0.1c0.9,0,1.7-0.7,1.8-1.6
			c0.2-5.3,2.1-10.2,5.2-14.3c2.5-3.2,3.8-7,3.8-11C56,28.2,55.9,27,55.6,25.7z M33.3,52.9h7.9v1.5h-7.9L33.3,52.9L33.3,52.9z
			 M31.3,56.5h11.8v2.1H31.3L31.3,56.5L31.3,56.5z M31.3,60.6h11.8V62H31.3L31.3,60.6L31.3,60.6z M43.1,64.9c0,1-0.6,1.9-1.5,2.2
			c-1.4,0.6-2.9,0.8-4.4,0.8s-3-0.3-4.4-0.8c-0.9-0.4-1.5-1.2-1.5-2.2V64h11.8L43.1,64.9L43.1,64.9z"/>
	</g>
</g>
<g>
	<g>
		<path class="st0" d="M68.9,31.7h-6.3c-0.6,0-1,0.5-1,1s0.5,1,1,1h6.3c0.6,0,1-0.5,1-1S69.5,31.7,68.9,31.7z"/>
	</g>
</g>
<g>
	<g>
		<path class="st0" d="M11.8,31.7H5.5c-0.6,0-1,0.5-1,1s0.5,1,1,1h6.3c0.6,0,1-0.5,1-1S12.4,31.7,11.8,31.7z"/>
	</g>
</g>
<g>
	<g>
		<path class="st0" d="M60.4,54.5L55.9,50c-0.4-0.4-1-0.4-1.4,0c-0.4,0.4-0.4,1,0,1.4l4.5,4.5c0.2,0.2,0.5,0.3,0.7,0.3
			c0.3,0,0.5-0.1,0.7-0.3C60.8,55.5,60.8,54.9,60.4,54.5z"/>
	</g>
</g>
<g>
	<g>
		<path class="st0" d="M20,14.1l-4.5-4.5c-0.4-0.4-1-0.4-1.4,0c-0.4,0.4-0.4,1,0,1.4l4.5,4.5c0.2,0.2,0.5,0.3,0.7,0.3
			c0.3,0,0.5-0.1,0.7-0.3C20.4,15.1,20.4,14.5,20,14.1z"/>
	</g>
</g>
<g>
	<g>
		<path class="st0" d="M60.4,9.6c-0.4-0.4-1-0.4-1.4,0l-4.5,4.5c-0.4,0.4-0.4,1,0,1.4c0.2,0.2,0.5,0.3,0.7,0.3
			c0.3,0,0.5-0.1,0.7-0.3l4.5-4.5C60.8,10.6,60.8,10,60.4,9.6z"/>
	</g>
</g>
<g>
	<g>
		<path class="st0" d="M20,50c-0.4-0.4-1-0.4-1.4,0L14,54.5c-0.4,0.4-0.4,1,0,1.4c0.2,0.2,0.5,0.3,0.7,0.3c0.3,0,0.5-0.1,0.7-0.3
			l4.5-4.5C20.4,51,20.4,50.4,20,50z"/>
	</g>
</g>
<g>
	<g>
		<path class="st0" d="M37.2,0c-0.6,0-1,0.5-1,1v6.3c0,0.6,0.5,1,1,1c0.6,0,1-0.5,1-1V1C38.2,0.5,37.8,0,37.2,0z"/>
	</g>
</g>
</svg>
