<?xml version="1.0" encoding="utf-8"?>
<!-- Generator: Adobe Illustrator 21.1.0, SVG Export Plug-In . SVG Version: 6.00 Build 0)  -->
<svg version="1.1" id="Layer_1" xmlns="http://www.w3.org/2000/svg" xmlns:xlink="http://www.w3.org/1999/xlink" x="0px" y="0px"
	 viewBox="0 0 70 70" style="enable-background:new 0 0 70 70;" xml:space="preserve">
<style type="text/css">
	.st0{fill:#580DA7;}
</style>
<g id="Layer_2">
	<g id="Layer_1-2">
		<g id="Layer_2-2">
			<g id="Layer_1-2-2">
				<path class="st0" d="M42.8,0.1L42.8,0.1c-0.6,0-1.1,0.5-1.1,1.1c0,0,0,0,0,0l0,0v8.6C41.1,9.5,40.5,9,39.8,9
					c-2.9,0-5.2,2.3-5.2,5.2s2.3,5.2,5.2,5.2c0.7,0,1.2-0.5,1.9-0.8v8.7c0,0.6,0.5,1.1,1.1,1.1l0,0H53c0.6,0,1.1-0.5,1.1-1.1
					c0-0.3-0.1-0.6-0.4-0.8l-0.1,0c-0.1-0.1-0.1-0.1-0.2-0.2l0,0c-0.1-0.1-0.1-0.2-0.2-0.2l0,0c-0.1-0.1-0.1-0.2-0.1-0.3
					c0-0.1-0.1-0.2-0.1-0.3l0,0c0-0.1-0.1-0.2-0.1-0.3c0-0.1-0.1-0.2-0.1-0.3c0-0.1,0-0.2,0-0.3c0-0.1,0-0.1,0-0.2
					c0-0.1,0-0.2,0-0.3c0-0.1,0-0.2,0-0.3c0-0.1,0-0.2,0.1-0.3c0-0.1,0.1-0.2,0.1-0.3c0-0.1,0.1-0.2,0.1-0.3c0-0.1,0.1-0.2,0.2-0.3
					c0.1-0.1,0.1-0.2,0.2-0.2c0.1-0.1,0.1-0.2,0.2-0.2c0.1-0.1,0.1-0.1,0.2-0.2l0,0c0.1-0.1,0.2-0.1,0.2-0.2l0,0
					c0.1-0.1,0.2-0.1,0.3-0.1l0,0c0.1,0,0.2-0.1,0.3-0.1l0,0l0.3-0.1c0.1,0,0.2,0,0.3-0.1l0,0c0.1,0,0.2,0,0.3,0c0.1,0,0.1,0,0.2,0
					h0.3l0.4,0.1l0.3,0.1c0.1,0,0.2,0.1,0.3,0.1l0.3,0.1l0.3,0.2c0.1,0.1,0.2,0.1,0.2,0.2l0,0c0.1,0.1,0.2,0.1,0.2,0.2
					c0.1,0.1,0.1,0.2,0.2,0.2c0.1,0.1,0.1,0.2,0.2,0.2l0,0c0.1,0.1,0.1,0.2,0.1,0.3c0,0.1,0.1,0.2,0.1,0.3l0,0
					c0,0.1,0.1,0.2,0.1,0.3c0,0.1,0.1,0.2,0.1,0.3c0,0.1,0,0.2,0,0.3v0.2c0,0.2,0,0.4-0.1,0.6c0,0.1,0,0.2-0.1,0.3
					c0,0.1-0.1,0.2-0.1,0.3c0,0.1-0.1,0.2-0.1,0.3c0,0.1-0.1,0.2-0.2,0.3c-0.1,0.1-0.1,0.2-0.2,0.2c-0.1,0.1-0.1,0.1-0.2,0.2
					c-0.4,0.4-0.4,1.1,0,1.5c0.2,0.2,0.5,0.3,0.8,0.3h10.2c0.6,0,1.1-0.4,1.1-1c0,0,0,0,0-0.1V1.2c0-0.6-0.5-1.1-1-1.1H42.8z
					 M58.8,2.3h9.1v24h-7.1c0-0.1,0.1-0.2,0.1-0.3c0.1-0.2,0.1-0.3,0.1-0.5c0-0.2,0.1-0.3,0.1-0.5c0-0.2,0-0.3,0-0.5V24
					c0-0.2,0-0.4-0.1-0.5c0-0.2-0.1-0.4-0.1-0.5c0-0.2-0.1-0.3-0.2-0.5c-0.1-0.3-0.3-0.6-0.5-0.8l0,0c-0.1-0.1-0.2-0.3-0.3-0.4l0,0
					c-0.1-0.1-0.2-0.3-0.3-0.4l0,0c-0.1-0.1-0.3-0.2-0.4-0.4l0,0c-0.1-0.1-0.3-0.2-0.4-0.3l0,0c-0.1-0.1-0.3-0.2-0.4-0.3l0,0
					c-0.1-0.1-0.3-0.2-0.5-0.2c-0.2-0.1-0.3-0.1-0.5-0.2c-0.2-0.1-0.3-0.1-0.5-0.1c-0.2,0-0.4-0.1-0.5-0.1c-0.2,0-0.4,0-0.6,0h-0.4
					c-0.2,0-0.4,0-0.5,0.1c-0.2,0-0.4,0.1-0.5,0.1l0,0c-0.2,0-0.3,0.1-0.5,0.2c-0.2,0.1-0.3,0.1-0.5,0.2l0,0
					c-0.2,0.1-0.3,0.2-0.4,0.3l0,0c-0.1,0.1-0.3,0.2-0.4,0.3l0,0c-0.1,0.1-0.3,0.2-0.4,0.3c-0.1,0.1-0.3,0.3-0.4,0.4
					c-0.1,0.1-0.2,0.3-0.3,0.4c-0.1,0.1-0.2,0.3-0.3,0.4c-0.1,0.2-0.2,0.3-0.2,0.5l0,0c-0.1,0.2-0.1,0.3-0.2,0.5
					c-0.1,0.2-0.1,0.3-0.1,0.5c0,0.2-0.1,0.3-0.1,0.5c0,0.2,0,0.3,0,0.5v0.4c0,0.2,0,0.4,0.1,0.5c0,0.2,0.1,0.4,0.1,0.5
					c0,0.2,0.1,0.3,0.2,0.5h-7.1v-9.1c0-0.6-0.5-1.1-1.1-1.1c-0.3,0-0.6,0.1-0.8,0.3c-1.2,1.2-3.1,1.2-4.3,0c-1.2-1.2-1.2-3.1,0-4.3
					c0.6-0.6,1.4-0.9,2.2-0.9l0,0c0.8,0,1.6,0.3,2.2,0.9c0.4,0.4,1.1,0.4,1.5,0c0.2-0.2,0.3-0.5,0.3-0.8V2.3L58.8,2.3L58.8,2.3z
					 M29.5,34.5c-2.6,0.1-4.7,2.1-5,4.7c-0.1,0.8-0.1,1.7,0.3,2.5h-8.1c-0.6,0-1.1,0.5-1.1,1.1l0,0l0,0v8.2c-2.4-0.9-5.5,0-6.6,2.6
					c-1.3,2.6-0.2,5.7,2.5,7c0.5,0.2,1,0.4,1.5,0.5c0.9,0.1,1.8,0,2.7-0.3v8.2c0,0.6,0.5,1.1,1.1,1.1c0,0,0,0,0,0h10.2
					c0.6,0,1.1-0.5,1.1-1.1c0-0.3-0.1-0.6-0.4-0.8c-1.4-1.3-1-4.1,0.7-4.9l0.1,0c1.6-0.9,4,0.2,4.3,2v0c0.2,1-0.1,2.1-0.8,2.9
					c-0.4,0.4-0.5,1.1,0,1.5c0.2,0.2,0.5,0.3,0.8,0.3H53c0.6,0,1.1-0.5,1.1-1.1c0-0.3-0.1-0.6-0.4-0.8c-1.4-1.3-1-4.1,0.7-4.9l0.1,0
					c1.6-0.9,4,0.2,4.3,2v0.1c0.2,1-0.1,2.1-0.8,2.9c-0.4,0.4-0.5,1.1-0.1,1.5c0.2,0.2,0.5,0.3,0.8,0.3h10c0.2,0,0.4,0,0.6-0.1h0
					c0.5-0.2,0.7-0.7,0.6-1.2v-10c0-0.6-0.5-1.1-1.1-1.1c-0.3,0-0.6,0.1-0.8,0.3c-0.7,0.7-1.7,1-2.6,0.9h0c-1.9-0.2-3.1-2.7-2.3-4.3
					l0-0.1c0.8-1.8,3.6-2.2,4.9-0.8c0.4,0.4,1.1,0.5,1.5,0.1c0.2-0.2,0.4-0.5,0.4-0.8v-9.6l-0.3,0.2c0.4-0.4,0.4-1.1,0-1.5
					c-0.2-0.2-0.5-0.3-0.8-0.3h-8.2c0.9-2.4,0-5.5-2.6-6.6c-0.8-0.4-1.6-0.6-2.4-0.5c-2.6,0.1-4.7,2.1-5,4.7
					c-0.2,0.8-0.1,1.7,0.3,2.5H34.5c0.9-2.4,0-5.5-2.6-6.6C31.2,34.7,30.4,34.5,29.5,34.5L29.5,34.5z M29.6,36.7
					c0.5,0,0.9,0,1.4,0.3l0.1,0c1.8,0.8,2.2,3.6,0.8,4.9c-0.4,0.4-0.5,1.1-0.1,1.5c0.2,0.2,0.5,0.4,0.8,0.4h9.1v7.1
					c-2.4-0.9-5.5,0-6.6,2.6c-1.3,2.6-0.2,5.7,2.4,7c0.5,0.2,1,0.4,1.5,0.5c0.9,0.1,1.8,0,2.7-0.3v7.1h-7.2c0.4-0.9,0.5-2,0.3-3
					c-0.5-2.9-3.2-4.8-6.1-4.2c-2.9,0.5-4.8,3.2-4.2,6.1c0.1,0.4,0.2,0.8,0.4,1.2h-7.1v-9.1c0-0.6-0.5-1.1-1.1-1.1
					c-0.3,0-0.6,0.1-0.8,0.3c-0.7,0.7-1.7,1-2.6,0.9h-0.1c-1.9-0.2-3.1-2.7-2.3-4.3l0-0.1c0.8-1.8,3.6-2.2,4.9-0.8
					c0.4,0.4,1.1,0.5,1.5,0.1c0.2-0.2,0.4-0.5,0.4-0.8v-9.1h9c0.6,0,1.1-0.5,1.1-1.1c0-0.2-0.1-0.5-0.2-0.7c-0.4-0.6-1-1.9-0.9-2.5
					c0,0,0-0.1,0-0.1C26.7,38,28.2,36.8,29.6,36.7z M55.8,36.7c0.5,0,0.9,0,1.4,0.3l0.1,0c1.8,0.8,2.2,3.6,0.8,4.9
					c-0.4,0.4-0.5,1.1-0.1,1.5c0.2,0.2,0.5,0.4,0.8,0.4h9V51c-2.4-0.9-5.5,0-6.6,2.6c-1.3,2.6-0.2,5.7,2.3,7
					c1.3,0.7,2.9,0.7,4.3,0.2v7.1h-7.2c0.4-0.9,0.5-2,0.3-3c-0.5-2.8-3.2-4.7-6.1-4.2c-2.8,0.5-4.7,3.2-4.2,6.1
					c0.1,0.4,0.2,0.8,0.4,1.2h-7.1v-9.1c0-0.6-0.5-1.1-1.1-1.1c-0.3,0-0.6,0.1-0.8,0.3c-0.7,0.7-1.7,1-2.6,0.9h-0.1
					c-1.9-0.2-3.1-2.7-2.3-4.3l0-0.1c0.8-1.8,3.6-2.2,4.9-0.8c0.4,0.4,1.1,0.5,1.5,0.1c0.2-0.2,0.4-0.5,0.4-0.8v-9.1h9
					c0.6,0,1.1-0.5,1.1-1.1c0-0.2-0.1-0.5-0.2-0.7c-0.4-0.6-1-1.9-0.9-2.5c0,0,0-0.1,0-0.1C52.9,38,54.3,36.8,55.8,36.7L55.8,36.7z"
					/>
			</g>
		</g>
	</g>
</g>
</svg>
