<?xml version="1.0" encoding="utf-8"?>
<!-- Generator: Adobe Illustrator 21.1.0, SVG Export Plug-In . SVG Version: 6.00 Build 0)  -->
<svg version="1.1" id="Layer_1" xmlns="http://www.w3.org/2000/svg" xmlns:xlink="http://www.w3.org/1999/xlink" x="0px" y="0px"
	 viewBox="0 0 70 70" style="enable-background:new 0 0 70 70;" xml:space="preserve">
<style type="text/css">
	.st0{stroke:#36A3FE;stroke-width:2;stroke-miterlimit:10;}
	.st1{fill:#36A3FE;}
</style>
<path class="st0" d="M22.7,20.4c3.1,0,6.1,0.6,8.9,1.8h0.1c0.1,0,0.2,0.1,0.2,0.1c3.8,1.7,6.6,4.3,8.2,7.5c0.7,1.5,1.2,3.2,1.5,4.9
	l0,0c0.7,5.6-1.8,10.2-3,11.9c-0.4,0.6-0.8,1.1-1.2,1.6c-2.9,3.2-4.2,5.4-4.6,9.6c-0.2,1.8,0.3,3.7,1.4,6.1c0.7,1.5,0.1,3.3-1.5,4
	c-0.4,0.2-0.9,0.3-1.3,0.3H18.3c-1.6,0-2.9-1.2-3-2.8l0,0c-0.1-0.7-0.3-1.2-0.7-1.9c-0.2-0.5-0.5-1.1-0.9-1.9
	c-0.8-2-1.8-2.2-3.2-2.3c-0.4,0-0.8,0-1.2,0c-1.5,0-3.1,0-4.2-1.2c-1-1.1-0.3-3.2-0.2-3.5c0.3-0.9-0.2-1.4-0.6-1.8
	c-0.1-0.1-0.2-0.2-0.3-0.3c0-0.2,0.1-0.3,0.1-0.5c0.3-0.5,0.1-1.2-0.3-1.6c-0.2-0.2-0.3-0.4-0.4-0.7c-0.1-0.3-0.1-0.4,0.2-0.7
	s0.5-0.7,0.6-1.2C4.4,46.7,3.6,46.3,3,46c-0.4-0.2-0.8-0.5-1.1-0.7C1.7,45.2,1.7,45,1.7,45c0-0.3,0.5-0.9,0.9-1.3
	c0.1-0.2,0.3-0.3,0.4-0.5c0.4-0.4,0.8-0.9,1.2-1.3c0.5-0.5,1-1.1,1.5-1.7c0.7-1,1-2.4,0.7-4c-0.4-2.9,0.7-5,1.7-6.9
	c0.2-0.4,0.4-0.7,0.5-1c0.2-0.4,0.4-0.8,0.7-1.1l0.1-0.1c1.5-2.2,4.1-5.3,10.3-6.4C20.6,20.5,21.7,20.4,22.7,20.4L22.7,20.4
	 M22.7,19.7c-1.1,0-2.1,0.1-3.2,0.3c-5.8,1.1-8.8,3.8-10.7,6.7C8.5,27.1,8.3,27.6,8,28c-1,2.1-2.8,4.7-2.3,8.3
	c0.1,1,0.2,2.5-0.6,3.6c-0.7,0.9-1.8,1.9-2.7,2.9s-2.2,2.1-1,3.1s2.3,1,2.1,2S2.4,49,2.8,50.1c0.1,0.4,0.3,0.7,0.6,0.9
	c0.2,0.2,0.3,0.6,0.2,0.9c-0.2,0.4-0.3,0.8-0.1,1.1c0.5,0.6,1.1,0.7,0.8,1.5c-0.3,0.7-0.8,2.8,0.4,4.1c1.6,1.8,4.1,1.3,5.8,1.4
	c1.1,0.1,1.9,0.2,2.6,1.9c0.9,2.2,1.4,2.7,1.5,3.6l0,0c0.2,1.9,1.8,3.3,3.7,3.3h13.2c2.1,0,3.7-1.7,3.7-3.7c0-0.5-0.1-1.1-0.4-1.6
	c-0.9-1.9-1.5-3.9-1.4-5.8c0.4-4.1,1.8-6.2,4.5-9.2c0.5-0.5,0.9-1.1,1.3-1.7c1.9-2.8,3.7-7.3,3.1-12.4l0,0c-0.2-1.8-0.7-3.5-1.5-5.1
	c-1.8-3.7-5-6.3-8.5-7.8c-0.1-0.1-0.2-0.1-0.3-0.1C29,20.4,25.8,19.8,22.7,19.7L22.7,19.7z"/>
<g>
	<path class="st1" d="M30.2,3.9c0-0.8-0.3-1.6-0.8-2.3c-0.6-0.8-1.5-1.3-2.5-1.4s-2,0.1-2.7,0.8c-0.9,0.7-1.4,1.7-1.4,2.8
		c-0.8-0.1-1.6,0-2.3,0.5c-0.8,0.5-1.3,1.3-1.6,2.2s0,1.7,0.5,2.5c0.5,0.7,1.2,1.3,2,1.5l-1.5,2.4c-0.2,0.3-0.1,0.7,0.2,0.9
		c0.1,0.1,0.2,0.1,0.3,0.1c0.2,0,0.4-0.1,0.6-0.3l1.8-2.8c0,0,0-0.1,0.1-0.1h1.7L22,14.9c-0.2,0.3-0.1,0.7,0.2,0.9
		c0.1,0.1,0.2,0.1,0.3,0.1c0.2,0,0.4-0.1,0.6-0.3l3-4.9h1.8L26.4,13c-0.2,0.3-0.1,0.7,0.2,0.9C26.7,14,26.9,14,27,14
		c0.2,0,0.4-0.1,0.6-0.3l1.9-3h0.3c1.9,0,3.4-1.5,3.4-3.4C33.1,5.6,31.8,4.2,30.2,3.9z M29.6,9.4h-7.4c-0.7,0-1.4-0.4-1.8-1
		c-0.3-0.5-0.4-1.1-0.3-1.6c0.1-0.6,0.5-1,1-1.3c0.5-0.3,1.1-0.4,1.6-0.3c0.6,0.1,1,0.5,1.3,1c0.2,0.3,0.6,0.4,0.9,0.2
		c0.3-0.2,0.4-0.6,0.2-0.9C24.8,5,24.4,4.6,24,4.4c0-1,0.3-1.8,1-2.4c0.5-0.4,1.1-0.6,1.8-0.5c0.6,0.1,1.2,0.4,1.6,0.9
		C29.2,3.5,29,5,28,5.8c-0.3,0.2-0.3,0.6-0.1,0.9C28,6.9,28.2,7,28.4,7c0.1,0,0.3-0.1,0.4-0.1c0.6-0.4,1-1,1.2-1.7
		c1,0.2,1.7,1,1.7,2.1C31.8,8.4,30.8,9.4,29.6,9.4z"/>
</g>
<g>
	<path class="st1" d="M48.8,15.8v-1.3h-2.7c-0.1-0.8-0.4-1.5-0.9-2.1l1.9-1.9l-0.9-0.9l-1.9,1.9c-0.6-0.5-1.3-0.7-2.1-0.8V7.8h-1.3
		v2.8c-0.8,0.1-1.4,0.5-2,0.9l-2-2L36,10.4l2,2c-0.4,0.6-0.7,1.3-0.8,2h-3v1.3h3c0.1,0.7,0.4,1.4,0.8,1.9l-2.1,2.1l0.9,0.9l2.1-2.1
		c0.6,0.4,1.2,0.7,1.9,0.9v2.9h1.3v-2.9c0.7-0.1,1.5-0.3,2-0.8l2,2l0.9-0.9l-2-2c0.5-0.6,0.8-1.3,0.9-2.1L48.8,15.8L48.8,15.8z
		 M38.4,15.1c0-1.8,1.4-3.2,3.2-3.2s3.2,1.4,3.2,3.2s-1.4,3.2-3.2,3.2C39.8,18.3,38.4,16.8,38.4,15.1z"/>
	<path class="st1" d="M13.2,11.1c0-0.8-0.3-1.6-0.7-2.2c-0.6-0.8-1.5-1.2-2.4-1.3c-1-0.1-1.9,0.1-2.7,0.7C6.5,8.9,6.1,9.9,6,10.9
		c-0.8-0.1-1.5,0-2.2,0.5c-1.6,1-2.1,3-1.1,4.7c0.6,1,1.7,1.6,2.8,1.6h1.8l-2.9,3.6h2.4l-3.1,3.4l7.5-4.7H7.4l3.5-2.3h1.7
		c1.8,0,3.3-1.5,3.3-3.3C15.9,12.7,14.8,11.4,13.2,11.1z M12.6,16.3H5.5c-0.7,0-1.3-0.4-1.7-1c-0.6-1-0.3-2.2,0.7-2.8
		s2.2-0.3,2.8,0.7c0.2,0.3,0.6,0.4,0.9,0.2c0.3-0.2,0.4-0.6,0.2-0.9c-0.3-0.5-0.7-0.8-1.1-1.1c-0.1-0.8,0.2-1.6,0.8-2.1
		c0.5-0.4,1.1-0.5,1.7-0.5c0.6,0.1,1.1,0.4,1.5,0.9s0.5,1.1,0.5,1.7c-0.1,0.6-0.4,1.1-0.9,1.5c-0.3,0.2-0.3,0.6-0.1,0.9
		c0.1,0.2,0.3,0.3,0.5,0.3c0.1,0,0.3-0.1,0.4-0.1c0.5-0.4,0.9-1,1.1-1.6c0.9,0.2,1.6,1,1.6,2C14.6,15.4,13.7,16.3,12.6,16.3z"/>
</g>
</svg>
