<?xml version="1.0" encoding="utf-8"?>
<!-- Generator: Adobe Illustrator 21.1.0, SVG Export Plug-In . SVG Version: 6.00 Build 0)  -->
<svg version="1.1" id="Layer_1" xmlns="http://www.w3.org/2000/svg" xmlns:xlink="http://www.w3.org/1999/xlink" x="0px" y="0px"
	 viewBox="0 0 70 70" style="enable-background:new 0 0 70 70;" xml:space="preserve">
<style type="text/css">
	.st0{fill:#580DA7;}
	.st1{fill:#580DA7;stroke:#580DA7;stroke-width:2;stroke-miterlimit:10;}
</style>
<g id="Layer_2">
	<g id="Layer_1-2">
		<path class="st0" d="M28.2,29.2c0-1.4,0.2-2.5,0.5-3.3s0.9-1.7,1.8-2.7l2.3-2.4c1-1.1,1.5-2.3,1.5-3.6c0-1.2-0.3-2.2-1-2.9
			c-0.6-0.7-1.6-1.1-2.8-1.1c-1.2,0-2.2,0.3-2.9,1c-0.7,0.6-1.1,1.5-1.1,2.6h-3.3c0-1.9,0.7-3.5,2-4.6c1.3-1.2,3.1-1.8,5.3-1.8
			s4,0.6,5.2,1.8s1.9,2.8,1.9,4.9s-1,4.1-2.9,6.1l-1.9,1.9c-0.9,1-1.3,2.3-1.3,4.1H28.2z M28.1,34.9c0-0.5,0.2-1,0.5-1.3
			c0.3-0.4,0.8-0.5,1.5-0.5c0.6,0,1.1,0.2,1.5,0.5c0.3,0.4,0.5,0.8,0.5,1.3s-0.2,1-0.5,1.3c-0.3,0.4-0.8,0.5-1.5,0.5
			c-0.6,0-1.1-0.2-1.5-0.5C28.3,35.9,28.1,35.4,28.1,34.9L28.1,34.9z"/>
		<path class="st1" d="M30.7,1.9c4.2,0,8.4,0.9,12.4,2.5h0.1c0.1,0.1,0.2,0.1,0.3,0.1c5.3,2.3,9.2,5.9,11.4,10.4
			c1,2.1,1.7,4.4,2,6.8l0,0c1,7.8-2.5,14.1-4.1,16.5c-0.5,0.8-1.1,1.5-1.7,2.3c-4,4.5-5.9,7.5-6.4,13.2c-0.2,2.4,0.4,5.1,2,8.5
			c1,2.1,0.1,4.6-2,5.6c-0.6,0.3-1.2,0.4-1.8,0.4H24.6c-2.2,0-4-1.7-4.2-3.8v-0.1c-0.1-1-0.4-1.7-1-2.7c-0.3-0.6-0.7-1.5-1.2-2.6
			c-1.2-2.8-2.5-3.1-4.4-3.2c-0.5,0-1.1,0-1.7,0c-2,0-4.3,0-5.8-1.6C5,52.7,6,49.8,6.1,49.5c0.5-1.3-0.3-2-0.8-2.4
			C5.1,47,5,46.8,4.8,46.7c0-0.2,0.1-0.4,0.2-0.6c0.4-0.8,0.2-1.7-0.4-2.3c-0.3-0.3-0.5-0.6-0.6-0.9c-0.2-0.5-0.1-0.5,0.2-0.9
			c0.4-0.5,0.7-1,0.8-1.7c0.3-1.5-0.8-2.1-1.7-2.5c-0.5-0.3-1.1-0.6-1.5-1c-0.3-0.3-0.3-0.5-0.3-0.5c0-0.5,0.7-1.3,1.3-1.9l0.6-0.6
			c0.5-0.8,1.1-1.4,1.6-2c0.7-0.7,1.4-1.5,2.1-2.3c1-1.3,1.4-3.2,1-5.6c-0.6-4,1-6.9,2.4-9.6c0.3-0.5,0.5-1,0.7-1.4
			c0.3-0.5,0.6-1.1,1-1.6l0.1-0.1c2-3.1,5.7-7.4,14.2-8.9C27.9,2.1,29.3,1.9,30.7,1.9L30.7,1.9 M30.7,1c-1.5,0-2.9,0.1-4.4,0.4
			c-8,1.5-12.1,5.2-14.8,9.3c-0.4,0.6-0.8,1.2-1.1,1.8C9,15.4,6.5,19,7.2,24c0.2,1.3,0.3,3.4-0.8,5c-1,1.3-2.5,2.6-3.7,4
			c-1.2,1.4-3.1,2.9-1.4,4.3s3.1,1.4,2.9,2.8c-0.2,1.4-1.6,1.5-1,3.1c0.2,0.5,0.4,0.9,0.8,1.3c0.3,0.3,0.4,0.8,0.2,1.2
			c-0.3,0.5-0.4,1.2-0.1,1.6c0.7,0.8,1.5,1,1.1,2S4.1,53.2,5.7,55c2.2,2.5,5.7,1.8,8.1,2c1.6,0.1,2.6,0.3,3.6,2.7
			c1.3,3,1.9,3.7,2.1,5.1l0,0c0.3,2.6,2.5,4.6,5.1,4.6h18.2c2.8,0,5.1-2.3,5.1-5.1l0,0c0-0.8-0.2-1.5-0.5-2.2
			c-1.3-2.7-2.1-5.4-1.9-8c0.5-5.7,2.4-8.5,6.2-12.7c0.7-0.7,1.3-1.5,1.8-2.4c2.6-3.9,5.2-10.1,4.3-17.1l0,0c-0.3-2.4-1-4.8-2.1-7
			C53.2,9.5,48.8,6,43.9,3.8c-0.1-0.1-0.3-0.1-0.4-0.2C39.4,2,35.1,1.1,30.7,1L30.7,1z"/>
	</g>
</g>
</svg>
