<?xml version="1.0" encoding="utf-8"?>
<!-- Generator: Adobe Illustrator 21.1.0, SVG Export Plug-In . SVG Version: 6.00 Build 0)  -->
<svg version="1.1" id="Layer_1" xmlns="http://www.w3.org/2000/svg" xmlns:xlink="http://www.w3.org/1999/xlink" x="0px" y="0px"
	 viewBox="0 0 70 70" style="enable-background:new 0 0 70 70;" xml:space="preserve">
<style type="text/css">
	.st0{fill:none;stroke:#36A3FE;stroke-width:2;stroke-miterlimit:10;}
	.st1{fill:#36A3FE;}
</style>
<g id="XMLID_1326_">
	<g>
		<g>
			<path class="st0" d="M31,26.2c-0.2-0.3-0.6-0.6-1-0.6H19V23c0-1-0.8-1.8-1.8-1.8S15.4,22,15.4,23v11.2h-11c-0.4,0-0.8,0.2-1,0.6
				l-2,3c-0.1,0.1-0.1,0.3,0,0.4l2,3c0.2,0.3,0.6,0.6,1,0.6h10.9v23.6H12c-1,0-1.8,0.8-1.8,1.8S11,69,12,69h10.5
				c1,0,1.8-0.8,1.8-1.8s-0.8-1.8-1.8-1.8H19V33.2h11c0.4,0,0.8-0.2,1-0.6l2-3c0.1-0.1,0.1-0.3,0-0.4L31,26.2z"/>
			<circle class="st0" cx="52.7" cy="8.5" r="5.4"/>
			<path class="st0" d="M59.6,16.2c-2.2,0-9.8,0-12,0l-5.7-0.7l3.1-3.7c0.9-1.1,0.8-2.7-0.3-3.7C43.6,7.2,42,7.3,41,8.4l-6.1,7.4
				c-0.6,0.7-0.8,1.7-0.4,2.6c0.3,0.9,1.2,1.5,2.1,1.6l9.2,1.1v44.7c0,1.7,1.4,3.1,3.1,3.1s3.1-1.4,3.1-3.1V41.1h1.4V66
				c0,1.7,1.4,3.1,3.1,3.1c1.7,0,3.1-1.4,3.1-3.1V22.4c0-0.3,0.2-0.5,0.5-0.5s0.5,0.2,0.6,0.5l0,0l0.1,19.1c0,1.4,1.2,2.6,2.6,2.6
				l0,0c1.4,0,2.6-1.2,2.6-2.6l-0.1-19.1C65.7,18.9,63,16.2,59.6,16.2z"/>
			<rect x="63.9" y="8" class="st1" width="2.2" height="2.4"/>
			<path class="st1" d="M66,0c-1.3,0-2.5,0.6-3,1.9l1.7,1.2c0.2-0.2,0.5-0.9,1.2-0.9c0.4,0,0.9,0.3,0.9,0.7c0,0.8-1.4,1.4-1.8,1.6
				c-1,0.5-1.1,1.3-1.1,2.1h2.2c0-0.3,0.3-0.5,0.7-0.7c1-0.6,2.4-0.9,2.4-3C69.1,1,67.7,0,66,0z"/>
		</g>
	</g>
</g>
</svg>
