<?xml version="1.0" encoding="utf-8"?>
<!-- Generator: Adobe Illustrator 21.1.0, SVG Export Plug-In . SVG Version: 6.00 Build 0)  -->
<svg version="1.1"
	 id="Layer_1" xmlns:cc="http://creativecommons.org/ns#" xmlns:dc="http://purl.org/dc/elements/1.1/" xmlns:inkscape="http://www.inkscape.org/namespaces/inkscape" xmlns:rdf="http://www.w3.org/1999/02/22-rdf-syntax-ns#" xmlns:sodipodi="http://sodipodi.sourceforge.net/DTD/sodipodi-0.dtd" xmlns:svg="http://www.w3.org/2000/svg"
	 xmlns="http://www.w3.org/2000/svg" xmlns:xlink="http://www.w3.org/1999/xlink" x="0px" y="0px" viewBox="0 0 45 45"
	 style="enable-background:new 0 0 45 45;" xml:space="preserve">
<style type="text/css">
	.st0{fill:#FFFFFF;}
</style>
<g transform="translate(0,-988.36218)">
	<path class="st0" d="M22.5,988.4c-12.4,0-22.5,10.1-22.5,22.5s10.1,22.5,22.5,22.5s22.5-10.1,22.5-22.5c0-2.5-0.4-5-1.2-7.3
		c-0.3-0.8-1.2-1.3-2-1s-1.3,1.2-1,2c0,0,0,0,0,0.1c0.7,2,1,4.1,1,6.2c0,10.7-8.6,19.3-19.3,19.3s-19.3-8.6-19.3-19.3
		s8.6-19.3,19.3-19.3c4.2,0,8.1,1.3,11.3,3.6c0.7,0.5,1.7,0.4,2.2-0.4s0.4-1.7-0.4-2.2l0,0C32,990,27.4,988.4,22.5,988.4z"/>
	<path class="st0" d="M43.4,991.6c-0.5,0-0.9,0.2-1.2,0.6l-21.3,24.4l-8.4-8.4c-0.6-0.6-1.6-0.6-2.3,0c-0.6,0.6-0.6,1.6,0,2.3l0,0
		l9.6,9.6c0.6,0.6,1.6,0.6,2.3,0c0,0,0-0.1,0.1-0.1l22.5-25.7c0.6-0.7,0.5-1.7-0.1-2.3C44.2,991.7,43.8,991.6,43.4,991.6L43.4,991.6
		z"/>
</g>
</svg>
