<?xml version="1.0" encoding="utf-8"?>
<!-- Generator: Adobe Illustrator 21.1.0, SVG Export Plug-In . SVG Version: 6.00 Build 0)  -->
<svg version="1.1" id="Layer_1" xmlns="http://www.w3.org/2000/svg" xmlns:xlink="http://www.w3.org/1999/xlink" x="0px" y="0px"
	 viewBox="0 0 70 70" style="enable-background:new 0 0 70 70;" xml:space="preserve">
<style type="text/css">
	.st0{fill:#EA3910;stroke:#EA3910;stroke-width:2;stroke-miterlimit:10;}
	.st1{fill:#EA3910;}
</style>
<path class="st0" d="M36.8,14.5c3.4,0,6.8,0.7,10,2l0.1,0c0.1,0,0.2,0.1,0.3,0.1c4.3,1.9,7.4,4.8,9.2,8.4c0.8,1.7,1.4,3.6,1.6,5.5v0
	c0.8,6.3-2,11.4-3.3,13.3c-0.4,0.6-0.9,1.2-1.4,1.8c-3.2,3.6-4.7,6-5.1,10.7c-0.2,2,0.3,4.1,1.6,6.8c0.8,1.7,0.1,3.7-1.6,4.5
	c-0.5,0.2-1,0.3-1.5,0.3H31.9c-1.8,0-3.2-1.3-3.4-3.1c0,0,0,0,0,0c-0.1-0.8-0.4-1.3-0.8-2.2c-0.3-0.5-0.6-1.2-1-2.1
	c-0.9-2.2-2.1-2.5-3.5-2.6c-0.4,0-0.9,0-1.4,0c-1.6,0-3.5,0-4.7-1.3c-1.1-1.3-0.4-3.6-0.3-3.9c0.4-1-0.2-1.6-0.7-2
	c-0.1-0.1-0.3-0.2-0.4-0.4c0-0.2,0.1-0.3,0.1-0.5c0.3-0.6,0.2-1.4-0.3-1.8c-0.2-0.2-0.4-0.5-0.5-0.7c-0.1-0.4-0.1-0.4,0.2-0.8
	c0.3-0.4,0.6-0.8,0.7-1.4c0.2-1.2-0.7-1.7-1.4-2.1c-0.4-0.2-0.8-0.5-1.2-0.8c-0.3-0.2-0.3-0.3-0.3-0.4c0-0.4,0.6-1,1-1.5
	c0.2-0.2,0.3-0.3,0.5-0.5c0.4-0.5,0.9-1,1.3-1.4c0.6-0.6,1.2-1.2,1.7-1.9c0.8-1.1,1.1-2.6,0.8-4.5c-0.5-3.2,0.8-5.6,1.9-7.7
	c0.2-0.4,0.4-0.8,0.6-1.1c0.2-0.5,0.5-0.9,0.8-1.3l0.1-0.1c1.6-2.5,4.6-5.9,11.5-7.2C34.5,14.6,35.7,14.5,36.8,14.5L36.8,14.5
	 M36.8,13.8c-1.2,0-2.4,0.1-3.5,0.3c-6.4,1.2-9.8,4.2-11.9,7.5c-0.3,0.5-0.6,1-0.9,1.4c-1.1,2.3-3.2,5.2-2.6,9.3
	c0.2,1.1,0.3,2.8-0.7,4c-0.8,1.1-2,2.1-3,3.2c-1,1.1-2.5,2.3-1.2,3.5s2.5,1.1,2.4,2.2c-0.2,1.1-1.3,1.2-0.8,2.5
	c0.1,0.4,0.3,0.8,0.7,1c0.3,0.3,0.3,0.6,0.2,1c-0.2,0.4-0.4,0.9-0.1,1.3c0.5,0.7,1.2,0.8,0.9,1.6c-0.3,0.8-0.9,3.1,0.4,4.6
	c1.8,2,4.6,1.4,6.5,1.6c1.3,0.1,2.1,0.2,2.9,2.1c1,2.4,1.6,3,1.7,4.1c0,0,0,0,0,0c0.2,2.1,2,3.7,4.1,3.7h14.7c2.3,0,4.1-1.9,4.1-4.1
	c0-0.6-0.1-1.2-0.4-1.8c-1-2.1-1.7-4.3-1.5-6.4c0.4-4.6,2-6.9,5-10.3c0.5-0.6,1-1.2,1.4-1.9c2.1-3.1,4.2-8.1,3.4-13.8v0
	c-0.3-2-0.8-3.9-1.7-5.7c-2-4.2-5.6-7-9.5-8.7c-0.1-0.1-0.2-0.1-0.3-0.1C43.8,14.5,40.3,13.8,36.8,13.8L36.8,13.8z"/>
<path class="st1" d="M64.1,17.5l2.6,2.3L56.9,20c-0.2-0.1,5.7-2.2,5.7-2.2l-2.2-2.3l9.6-0.7L64.1,17.5z M65.3,3.6l-7.9,5.4l3.1,0.8
	c0,0-4.1,4.9-3.8,4.8l8.3-5.3l-3.4-0.5L65.3,3.6z M53.2,0.4L49,9L52,8.2c0,0-1.2,6.3-1,6c0.2-0.2,4.6-8.5,4.6-8.5l-3.2,1.1L53.2,0.4
	z"/>
</svg>
