<?xml version="1.0" encoding="utf-8"?>
<!-- Generator: Adobe Illustrator 21.1.0, SVG Export Plug-In . SVG Version: 6.00 Build 0)  -->
<svg version="1.1" id="Layer_1" xmlns="http://www.w3.org/2000/svg" xmlns:xlink="http://www.w3.org/1999/xlink" x="0px" y="0px"
	 viewBox="0 0 70 70" style="enable-background:new 0 0 70 70;" xml:space="preserve">
<style type="text/css">
	.st0{fill:#FFBE1D;}
</style>
<path class="st0" d="M55.6,54c-8.8-2.2-9.8-6.5-9.8-9.6c0-1.8,0.5-3.7,0.8-4.8c1.9-0.2,3.4-1.7,4.6-4.8c1.4-3.4,0.3-5.5-0.8-6.5
	c0.5-2.9,0.6-5.5,0.3-7.9c2.5-1,4.3-2.4,4.3-4.1c0-3.2-5.2-4.8-9.7-5.6c-4.1-3-8.8-3.2-10.4-3.2s-6.3,0.3-10.3,3.2
	c-4.5,0.8-9.7,2.4-9.7,5.6c0,1.8,1.7,3.1,4.3,4.1c-0.3,2.4-0.3,5,0.3,7.9c-1.1,1-2.1,3.1-0.8,6.5c1.3,3.1,2.7,4.6,4.6,4.8
	c0.3,1.1,0.8,3,0.8,4.8c0,3.1-1,7.4-9.8,9.6C4.1,56.7,0,60.8,0,68.7C0,69.4,0.6,70,1.3,70s1.3-0.6,1.3-1.3c0-5.7,2-9.6,12.6-12.2
	c7.8-1.9,11.7-6,11.7-12.1c0-3.1-1.2-6.4-1.3-6.6c-0.3-0.6-0.8-0.9-1.4-0.8c-0.5,0.1-1.5,0.3-3-3.2c-1.2-3,0.2-3.7,0.3-3.8
	c0.5-0.3,0.8-0.8,0.8-1.4c-0.5-2.8-0.6-5.2-0.4-7.4c3,0.8,6.8,1.3,10.6,1.4l-0.6,0.6c-0.5,0.5-0.5,1.3,0,1.8
	c0.3,0.3,0.6,0.3,0.9,0.3c0.3,0,0.7-0.1,0.9-0.3l2.7-2.7c0.3-0.3,0.3-0.6,0.3-0.9s-0.2-0.7-0.3-0.9l-2.7-2.6c-0.5-0.5-1.3-0.5-1.8,0
	c-0.5,0.5-0.5,1.3,0,1.8l0.5,0.5c-4.3-0.2-7.7-0.8-10.1-1.4c0.4-1.7,1.2-3,2.2-4.3C28,10.2,33.9,10,35.1,10c1.2,0,7.1,0.3,10.6,4.5
	c1,1.2,1.8,2.6,2.2,4.3c-2.1,0.6-5,1.1-8.8,1.4c-0.8,0.1-1.3,0.7-1.3,1.4s0.6,1.2,1.3,1.2h0.1c3.1-0.2,6.3-0.6,9-1.4
	c0.3,2.2,0.1,4.6-0.4,7.4c-0.1,0.6,0.2,1.1,0.7,1.4c0.2,0.1,1.5,0.8,0.3,3.8c-1.4,3.5-2.4,3.3-3,3.2c-0.6-0.1-1.2,0.3-1.4,0.8
	c-0.1,0.2-1.3,3.4-1.3,6.6c0,6.1,4,10.1,11.7,12.1c10.5,2.6,12.6,6.4,12.6,12.2c0,0.7,0.6,1.3,1.3,1.3c0.7,0,1.3-0.6,1.3-1.3
	C70.1,60.8,66,56.7,55.6,54z M17.6,16.4c0-0.4,1.1-1.4,4.1-2.3c-0.8,1.2-1.4,2.4-1.8,3.9C18.3,17.4,17.6,16.7,17.6,16.4z M48.5,14.1
	c3,0.8,4.1,1.9,4.1,2.3c0,0.3-0.7,1-2.3,1.7C49.8,16.6,49.2,15.3,48.5,14.1z"/>
</svg>
