<svg xmlns="http://www.w3.org/2000/svg" viewBox="0 0 27.21 27.12">
    <title>Asset 3</title>
    <g id="Layer_2" data-name="Layer 2" style="fill:#ffd485">
        <g id="Isolation_Mode" data-name="Isolation Mode">
            <path d="M23.27,12.74a4,4,0,0,0-2.36.77v-7a.29.29,0,0,0-.27-.27H13.7a4.08,4.08,0,0,0,.73-2.27A3.95,3.95,0,1,0,7.26,6.21h-7A.29.29,0,0,0,0,6.49V14a.29.29,0,0,0,.27.27H.41a.24.24,0,0,0,.18-.09,3.38,3.38,0,0,1,2.31-.91,3.4,3.4,0,0,1,0,6.8,3.38,3.38,0,0,1-2.31-.91A.34.34,0,0,0,.41,19H.27a.29.29,0,0,0-.27.27V26.8a.29.29,0,0,0,.27.27l20.36,0a.29.29,0,0,0,.27-.27v-7a4,4,0,0,0,6.3-3.17A3.91,3.91,0,0,0,23.27,12.74Z"/>
        </g>
    </g>
</svg>