<?xml version="1.0" encoding="utf-8"?>
<!-- Generator: Adobe Illustrator 21.1.0, SVG Export Plug-In . SVG Version: 6.00 Build 0)  -->
<svg version="1.1" id="Layer_1" xmlns="http://www.w3.org/2000/svg" xmlns:xlink="http://www.w3.org/1999/xlink" x="0px" y="0px"
	 viewBox="0 0 70 70" style="enable-background:new 0 0 70 70;" xml:space="preserve">
<style type="text/css">
	.st0{fill:#580DA7;}
</style>
<g id="Layer_2">
	<g id="Layer_1-2">
		<path class="st0" d="M35,5.2C15.7,5.2,0.1,20.9,0.1,40.2c0,11.6,5.8,22.5,15.4,29c0.7,0.5,1.7,0.4,2.3-0.3
			c0.5-0.7,0.4-1.7-0.3-2.3c0,0-0.1-0.1-0.1-0.1c-1.4-0.9-2.7-2-3.9-3.1l0.7-0.7l0,0l3.8-3.8l-1.5-1.5l-1.9,1.9l-1.9,1.9l-0.7,0.7
			c-5.2-5.6-8.2-12.9-8.5-20.5h6.4v-2.2H3.4c0.3-7.6,3.3-14.9,8.5-20.5l0.7,0.7l0,0l3.8,3.8l1.5-1.5l-3.8-3.8l0,0l-0.7-0.7
			c5.6-5.2,12.9-8.2,20.5-8.5v6.3h2.2V8.6c7.6,0.3,14.9,3.3,20.5,8.5l-0.7,0.7l0,0l-3.8,3.8l1.5,1.5l3.8-3.8l0,0l0.7-0.7
			c5.2,5.6,8.2,12.9,8.5,20.5h-6.4v2.2h6.3c-0.3,7.6-3.3,14.9-8.5,20.5l-2.6-2.6l0,0l-1.9-1.9l-1.5,1.5l3.8,3.8l0,0l0.7,0.7
			c-1.2,1.1-2.5,2.2-3.9,3.1c-0.7,0.5-1,1.5-0.5,2.2c0,0,0,0,0,0c0.3,0.4,0.8,0.7,1.4,0.7c0.3,0,0.6-0.1,0.9-0.3
			c16-10.8,20.2-32.5,9.5-48.5C57.5,11,46.6,5.2,35,5.2z"/>
		<path class="st0" d="M31.9,37.3L31.9,37.3l-0.2,0.2c-0.1,0.1-0.1,0.2-0.2,0.3L20.4,54.8l16.7-11.4c0.1-0.1,0.2-0.1,0.3-0.2
			l0.3-0.2l0,0c0.1,0,0.2-0.1,0.2-0.2c1.5-1.7,1.4-4.3-0.3-5.8c-1.6-1.4-4-1.4-5.6,0C32,37.2,32,37.3,31.9,37.3z M37.6,40
			c0,1.5-1.2,2.7-2.7,2.7s-2.7-1.2-2.7-2.7c0-1.5,1.2-2.7,2.7-2.7S37.6,38.5,37.6,40z"/>
	</g>
</g>
</svg>
