<?xml version="1.0" encoding="utf-8"?>
<!-- Generator: Adobe Illustrator 21.1.0, SVG Export Plug-In . SVG Version: 6.00 Build 0)  -->
<svg version="1.1" id="Layer_1" xmlns="http://www.w3.org/2000/svg" xmlns:xlink="http://www.w3.org/1999/xlink" x="0px" y="0px"
	 viewBox="0 0 70 70" style="enable-background:new 0 0 70 70;" xml:space="preserve">
<style type="text/css">
	.st0{fill:#36A3FE;stroke:#36A3FE;stroke-width:2;stroke-miterlimit:10;}
	.st1{fill:#36A3FE;}
</style>
<path class="st0" d="M42,2.2c4.2,0,8.4,0.8,12.3,2.5l0.1,0c0.1,0,0.2,0.1,0.3,0.1c5.2,2.3,9.1,5.9,11.3,10.3c1,2.1,1.7,4.4,2,6.7v0
	c1,7.7-2.5,14-4.1,16.3c-0.5,0.8-1.1,1.5-1.7,2.2c-4,4.4-5.8,7.4-6.3,13.1c-0.2,2.4,0.4,5.1,2,8.4c1,2.1,0.1,4.6-2,5.6
	c-0.6,0.3-1.2,0.4-1.8,0.4H36c-2.2,0-3.9-1.6-4.1-3.8c0,0,0,0,0,0c-0.1-0.9-0.4-1.6-1-2.7c-0.3-0.6-0.7-1.4-1.2-2.6
	c-1.2-2.7-2.5-3-4.3-3.2c-0.5,0-1.1,0-1.7,0c-2,0-4.3,0-5.7-1.6c-1.4-1.6-0.4-4.4-0.3-4.7c0.5-1.3-0.3-2-0.8-2.4
	c-0.2-0.1-0.3-0.3-0.5-0.4c0-0.2,0.1-0.4,0.2-0.6c0.4-0.7,0.2-1.7-0.4-2.2c-0.3-0.2-0.4-0.6-0.6-0.9c-0.2-0.5-0.1-0.5,0.2-0.9
	c0.4-0.5,0.7-1,0.8-1.7c0.2-1.5-0.8-2.1-1.7-2.5c-0.5-0.3-1-0.6-1.5-1c-0.4-0.2-0.4-0.4-0.4-0.5c0-0.5,0.7-1.2,1.3-1.9
	c0.2-0.2,0.4-0.4,0.6-0.6c0.5-0.6,1.1-1.2,1.6-1.7c0.7-0.7,1.4-1.5,2.1-2.3c1-1.3,1.4-3.2,1-5.6c-0.6-3.9,1-6.8,2.3-9.4
	c0.3-0.5,0.5-1,0.7-1.4c0.3-0.6,0.6-1.1,0.9-1.6l0.1-0.1c2-3.1,5.6-7.3,14.1-8.8C39.2,2.3,40.6,2.2,42,2.2L42,2.2 M42,1.3
	c-1.5,0-2.9,0.1-4.4,0.4c-7.9,1.4-12,5.2-14.7,9.2c-0.4,0.6-0.7,1.2-1.1,1.8c-1.4,2.8-3.9,6.4-3.2,11.4c0.2,1.3,0.3,3.4-0.8,4.9
	c-1,1.3-2.5,2.6-3.7,4c-1.2,1.4-3,2.9-1.4,4.3c1.6,1.4,3.1,1.4,2.9,2.7c-0.2,1.4-1.6,1.4-1,3c0.2,0.5,0.4,0.9,0.8,1.3
	c0.3,0.3,0.4,0.8,0.2,1.2c-0.2,0.5-0.4,1.2-0.1,1.6c0.7,0.8,1.5,1,1.1,2s-1.1,3.9,0.5,5.6c2.2,2.4,5.7,1.8,8,2
	c1.5,0.1,2.5,0.2,3.6,2.6c1.2,3,1.9,3.7,2.1,5c0,0,0,0,0,0c0.3,2.6,2.5,4.6,5.1,4.6h18c2.8,0,5.1-2.3,5.1-5.1c0-0.7-0.2-1.5-0.5-2.2
	c-1.2-2.6-2.1-5.3-1.9-7.9c0.5-5.7,2.4-8.4,6.1-12.6c0.6-0.7,1.2-1.5,1.8-2.3c2.5-3.8,5.1-10,4.2-17v0c-0.3-2.4-1-4.8-2.1-7
	C64.2,9.7,59.8,6.2,55,4.1C54.9,4,54.7,4,54.6,3.9C50.6,2.2,46.3,1.3,42,1.3L42,1.3z"/>
<polygon class="st1" points="31.6,15 37.3,9.4 41.8,12.6 45.6,8.8 50.3,14 45.9,11.5 42.5,14.9 37.3,10.9 "/>
<polygon class="st1" points="41.3,20.2 48.6,16.9 51.7,21.5 56.6,19.3 59.2,25.8 56,21.9 51.6,23.9 48.1,18.3 "/>
</svg>
