<?xml version="1.0" encoding="utf-8"?>
<!-- Generator: Adobe Illustrator 21.1.0, SVG Export Plug-In . SVG Version: 6.00 Build 0)  -->
<svg version="1.1" id="Layer_1" xmlns="http://www.w3.org/2000/svg" xmlns:xlink="http://www.w3.org/1999/xlink" x="0px" y="0px"
	 viewBox="0 0 70 70" style="enable-background:new 0 0 70 70;" xml:space="preserve">
<style type="text/css">
	.st0{stroke:#FFBE1D;stroke-width:2;stroke-miterlimit:10;}
	.st1{fill:#FFBE1D;}
</style>
<path class="st0" d="M41.9,2.3c4.2,0,8.4,0.8,12.3,2.5l0.1,0c0.1,0,0.2,0.1,0.3,0.1c5.2,2.3,9.1,5.9,11.3,10.3c1,2.1,1.7,4.4,2,6.7
	v0c1,7.7-2.5,14-4.1,16.4c-0.5,0.8-1.1,1.5-1.7,2.2c-4,4.4-5.8,7.4-6.3,13.1c-0.2,2.4,0.4,5.1,2,8.4c1,2.1,0.1,4.6-2,5.6
	C55.2,67.9,54.6,68,54,68H35.9c-2.2,0-4-1.6-4.1-3.8c0,0,0,0,0,0c-0.1-0.9-0.4-1.6-1-2.7c-0.3-0.6-0.7-1.4-1.2-2.6
	c-1.2-2.7-2.5-3-4.3-3.2c-0.5,0-1.1,0-1.7,0c-2,0-4.3,0-5.7-1.6c-1.4-1.6-0.4-4.4-0.3-4.8c0.5-1.3-0.3-2-0.8-2.4
	c-0.2-0.1-0.3-0.3-0.5-0.4c0-0.2,0.1-0.4,0.2-0.6c0.4-0.7,0.2-1.7-0.4-2.2c-0.3-0.2-0.4-0.6-0.6-0.9c-0.2-0.5-0.1-0.5,0.2-0.9
	c0.4-0.5,0.7-1,0.8-1.7c0.2-1.5-0.8-2.1-1.7-2.5c-0.5-0.3-1-0.6-1.5-1C13,36.4,13,36.2,13,36.2c0-0.5,0.7-1.2,1.3-1.9
	c0.2-0.2,0.4-0.4,0.6-0.6c0.5-0.6,1.1-1.2,1.6-1.7c0.7-0.7,1.4-1.5,2.1-2.3c1-1.3,1.4-3.2,1-5.6c-0.6-3.9,1-6.9,2.3-9.4
	c0.3-0.5,0.5-1,0.7-1.4c0.3-0.6,0.6-1.1,0.9-1.6l0.1-0.1c2-3.1,5.6-7.3,14.1-8.8C39.1,2.4,40.5,2.3,41.9,2.3L41.9,2.3 M41.9,1.4
	c-1.5,0-2.9,0.1-4.4,0.4C29.7,3.2,25.6,7,22.9,11c-0.4,0.6-0.7,1.2-1.1,1.8c-1.4,2.8-3.9,6.4-3.2,11.4c0.2,1.3,0.3,3.4-0.8,4.9
	c-1,1.3-2.5,2.6-3.7,4c-1.2,1.4-3,2.9-1.4,4.3c1.6,1.4,3.1,1.4,2.9,2.7c-0.2,1.4-1.6,1.4-1,3c0.2,0.5,0.4,0.9,0.8,1.3
	c0.3,0.3,0.4,0.8,0.2,1.2c-0.2,0.5-0.4,1.2-0.1,1.6c0.7,0.8,1.5,1,1.1,2c-0.4,1-1.1,3.9,0.5,5.6c2.2,2.4,5.7,1.8,8,2
	c1.5,0.1,2.5,0.2,3.6,2.6c1.2,3,1.9,3.7,2.1,5c0,0,0,0,0,0c0.3,2.6,2.5,4.6,5.1,4.6h18c2.8,0,5.1-2.3,5.1-5.1c0-0.7-0.2-1.5-0.5-2.2
	c-1.2-2.6-2.1-5.3-1.9-7.9c0.5-5.7,2.4-8.5,6.1-12.6c0.6-0.7,1.2-1.5,1.8-2.3c2.5-3.8,5.1-10,4.2-17v0c-0.3-2.4-1-4.8-2.1-7
	c-2.5-5.1-6.8-8.6-11.7-10.7c-0.1-0.1-0.3-0.1-0.4-0.2C50.5,2.3,46.3,1.5,41.9,1.4L41.9,1.4z"/>
<path class="st1" d="M27.1,27.6c0.6,1.3,2,2.7,6.1,2.7c0.3,0,0.5,0,0.7,0c2.6-0.1,5.6-0.7,8.6-1.8c3.3,1.1,6.7,1.9,9.6,1.9
	c3,0,5.2-0.7,6-2.7c0.8-2-0.4-4.3-2.6-6.5c2.3-2.1,3.5-4.5,2.7-6.4c-0.6-1.3-2.2-2.9-6.9-2.7c-2.6,0.1-5.6,0.7-8.6,1.8
	c-3.1-1.1-6-1.7-8.6-1.9c-4.8-0.3-6.3,1.3-7,2.7c-0.6,1.3-0.5,3.5,2.6,6.5C27.4,23.4,26.3,25.6,27.1,27.6z M33.9,28
	c-3,0.1-4.4-0.6-4.6-1.3c-0.3-0.8,0.5-2.3,2.3-4c2,1.7,4.8,3.2,7.6,4.5C37.3,27.6,35.5,27.9,33.9,28z M42.7,16.4
	c0.6,0.2,1.1,0.5,1.8,0.7c3.2,1.3,5.7,2.8,7.5,4.3c-2,1.4-4.5,2.9-7.6,4.2c-0.6,0.3-1.2,0.5-1.8,0.7c-0.6-0.2-1.1-0.5-1.8-0.7
	c-2.8-1.3-5.4-2.8-7.4-4.3c2-1.4,4.5-2.9,7.6-4.2C41.6,16.8,42.1,16.6,42.7,16.4z M56.1,26.9c-0.6,1.3-4.5,1.8-9.9,0.4
	c2.8-1.2,5.5-2.8,7.6-4.4C55.6,24.6,56.5,26.1,56.1,26.9z M51.5,14.4c0.2,0,0.5,0,0.7,0c2.6,0,3.7,0.7,4,1.3c0.3,0.8-0.5,2.3-2.3,4
	c-2.1-1.7-4.8-3.3-7.6-4.5C48.1,14.8,49.9,14.5,51.5,14.4z M29.3,15.6c0.3-0.7,1.4-1.2,3.9-1.2c0.3,0,0.6,0,0.7,0
	c1.6,0.1,3.3,0.4,5.2,0.8c-2.8,1.2-5.5,2.8-7.6,4.5C29.5,17.7,29,16.3,29.3,15.6z"/>
</svg>
