<?xml version="1.0" encoding="utf-8"?>
<!-- Generator: Adobe Illustrator 21.1.0, SVG Export Plug-In . SVG Version: 6.00 Build 0)  -->
<svg version="1.1"
	 id="Layer_1" xmlns:cc="http://creativecommons.org/ns#" xmlns:dc="http://purl.org/dc/elements/1.1/" xmlns:inkscape="http://www.inkscape.org/namespaces/inkscape" xmlns:rdf="http://www.w3.org/1999/02/22-rdf-syntax-ns#" xmlns:sodipodi="http://sodipodi.sourceforge.net/DTD/sodipodi-0.dtd" xmlns:svg="http://www.w3.org/2000/svg"
	 xmlns="http://www.w3.org/2000/svg" xmlns:xlink="http://www.w3.org/1999/xlink" x="0px" y="0px" viewBox="0 0 70 70"
	 style="enable-background:new 0 0 70 70;" xml:space="preserve">
<style type="text/css">
	.st0{fill:#EA3910;}
</style>
<g transform="translate(0,-952.36218)">
	<path class="st0" d="M61.3,952.5c-0.4,0-0.8,0.2-1,0.4l-7,6.2c-0.3,0.3-0.5,0.7-0.5,1.2v7.1l-2.2,2.2c-5.4-4.8-12.5-7.8-20.3-7.8
		C13.6,961.8,0,975.4,0,992.1c0,16.7,13.6,30.3,30.3,30.3s30.3-13.6,30.3-30.3c0-7.8-3-14.9-7.8-20.3l2.2-2.2h7.1
		c0.4,0,0.9-0.2,1.2-0.5l6.2-7c0.4-0.4,0.5-1.1,0.2-1.7s-0.8-0.9-1.4-0.9h-5.4V954C62.9,953.2,62.2,952.5,61.3,952.5z M59.8,957.5
		v3.5c0,0.8,0.7,1.6,1.6,1.6h3.5l-3.4,3.9H56V961L59.8,957.5z M30.3,964.9c7,0,13.3,2.6,18.1,6.9l-2.8,2.8
		c-4.1-3.6-9.5-5.8-15.3-5.8C17.4,968.8,7,979.2,7,992.1c0,12.8,10.4,23.3,23.3,23.3c12.8,0,23.3-10.4,23.3-23.3
		c0-5.9-2.2-11.2-5.8-15.3l2.8-2.8c4.3,4.8,6.9,11.2,6.9,18.1c0,15-12.1,27.2-27.2,27.2s-27.2-12.2-27.2-27.2
		C3.1,977.1,15.3,964.9,30.3,964.9z M30.3,971.9c5,0,9.6,1.8,13.1,4.9l-3.9,3.9c-2.5-2.1-5.7-3.3-9.2-3.3c-8.1,0-14.8,6.6-14.8,14.8
		c0,8.1,6.6,14.8,14.8,14.8s14.8-6.6,14.8-14.8c0-3.5-1.2-6.7-3.3-9.3l3.9-3.9c3,3.5,4.9,8.1,4.9,13.2c0,11.2-9,20.2-20.2,20.2
		s-20.2-9-20.2-20.2C10.1,980.9,19.1,971.9,30.3,971.9z M30.3,980.4c2.7,0,5.1,0.9,7.1,2.4l-5.1,5.1c-0.6-0.3-1.3-0.5-2-0.5
		c-2.6,0-4.7,2.1-4.7,4.7c0,2.6,2.1,4.7,4.7,4.7s4.7-2.1,4.7-4.7c0-0.7-0.2-1.4-0.5-2l5.1-5.1c1.5,2,2.4,4.4,2.4,7.1
		c0,6.5-5.2,11.6-11.6,11.6s-11.6-5.2-11.6-11.6C18.6,985.6,23.8,980.4,30.3,980.4z M31.2,993.4C31.1,993.4,31.1,993.4,31.2,993.4
		C31.1,993.4,31.1,993.4,31.2,993.4z"/>
</g>
</svg>
