<?xml version="1.0" encoding="utf-8"?>
<!-- Generator: Adobe Illustrator 21.1.0, SVG Export Plug-In . SVG Version: 6.00 Build 0)  -->
<svg version="1.1" id="Layer_1" xmlns="http://www.w3.org/2000/svg" xmlns:xlink="http://www.w3.org/1999/xlink" x="0px" y="0px"
	 viewBox="0 0 59 96" style="enable-background:new 0 0 59 96;" xml:space="preserve">
<style type="text/css">
	.st0{fill:#666666;}
</style>
<g id="Layer_2">
	<g id="Layer_1-2">
		<path class="st0" d="M52.5,46c-0.8,0.1-1.7,0.2-2.5,0.5c-0.3-3.9-3.7-6.7-7.5-6.4c-1.4,0.1-2.7,0.6-3.8,1.5
			c-0.8-2.7-3.3-4.6-6.1-4.5c-1.8,0-3.6,0.7-4.9,2.1l-0.1-1.9c9.8-4.5,14.1-16.1,9.6-25.8S21.1-2.7,11.4,1.8S-2.7,17.8,1.8,27.6
			C4,32.5,8.2,36.3,13.4,38l0.3,14.6c-1.3,0.7-2.5,1.6-3.6,2.7C4.7,60.2,2.9,72.1,9,81.3C15.8,91.6,23.8,96,35.7,96
			c12.6,0,16.9-6.3,20.1-12.8C59,76.9,59,53,59,52C59,48.8,56,46,52.5,46z M13,20.5l0.2,7.3c-4.6-3.5-5.5-10.1-2-14.7
			s10.1-5.5,14.7-2s5.5,10.1,2,14.7c-0.2,0.3-0.4,0.5-0.6,0.8L27,20.5c0-4.3-3-7.5-7-7.5S13,16.2,13,20.5z M3,19.5
			C3,10.4,10.3,3,19.4,3S36,10.3,36,19.4c0,6-3.2,11.6-8.5,14.5l-0.1-3.5c6.1-4.4,7.4-12.8,3.1-18.9S17.7,4.2,11.6,8.5
			S4.2,21.3,8.5,27.4c1.2,1.7,2.8,3.1,4.7,4.1l0.1,3.3C7.1,32.3,3,26.2,3,19.5L3,19.5z M53.2,81.8C50.1,87.9,46.7,93,35.7,93
			s-18-3.9-24.2-13.3c-3.7-5.5-5.3-16.9,0.6-22.2c0.5-0.5,1.1-0.9,1.7-1.4L14,66.5c0,0.8,0.7,1.5,1.5,1.5c0,0,0,0,0,0
			c0.8,0,1.5-0.7,1.5-1.5c0,0,0,0,0,0l-1-46c0-2.6,1.6-4.5,4-4.5s4,1.9,4,4.5l1,28c-0.1,0.8,0.6,1.5,1.4,1.6
			c0.8,0.1,1.5-0.6,1.6-1.4l0.8-4.5c0-0.1,0-0.2,0-0.3c-0.1-2.1,1.5-3.9,3.6-4c0.1,0,0.1,0,0.2,0c2.4,0,3.5,2.1,3.5,4v3
			c0,0.8,0.7,1.5,1.5,1.5S39,47.8,39,47c0-2.2,1.8-4,4-4s4,1.8,4,4v6.5c0,0.8,0.7,1.5,1.5,1.5s1.5-0.7,1.5-1.5v-3.8
			c0.8-0.4,1.6-0.6,2.5-0.7c1.8,0,3.5,1.5,3.5,3C56,58.7,55.5,77.2,53.2,81.8z"/>
	</g>
</g>
</svg>
