<?xml version="1.0" encoding="utf-8"?>
<!-- Generator: Adobe Illustrator 21.1.0, SVG Export Plug-In . SVG Version: 6.00 Build 0)  -->
<svg version="1.1" id="Capa_1" xmlns="http://www.w3.org/2000/svg" xmlns:xlink="http://www.w3.org/1999/xlink" x="0px" y="0px"
	 viewBox="0 0 70 70" style="enable-background:new 0 0 70 70;" xml:space="preserve">
<style type="text/css">
	.st0{fill:#FFBE1D;}
</style>
<path class="st0" d="M30.8,43.2v21.2c0,3.1-2.2,5.6-5,5.6H14.2c-4.7,0-8.5-2-11-5.9C1.1,61,0,56.4,0,51.1c0-8.4,2.6-18,7.1-25.5
	C12.2,16.8,18.8,12,25.8,12c2.7,0,5,2.5,5,5.6v5.8c0,1-0.8,1.9-1.9,1.9S27,24.5,27,23.4v-5.8c0-1.1-0.6-1.9-1.2-1.9
	c-7.6,0-13,7.3-15.5,11.7c-4,6.9-6.5,16-6.5,23.6c0,4.6,0.9,8.5,2.6,11.1c1.8,2.7,4.4,4.1,7.8,4.1h11.7c0.6,0,1.2-0.8,1.2-1.9V43.2
	c0-1,0.8-1.9,1.9-1.9S30.8,42.2,30.8,43.2z M62.9,25.5C57.8,16.8,51.2,12,44.2,12c-2.7,0-5,2.5-5,5.6v5.9c0,1,0.8,1.9,1.9,1.9
	s1.9-0.8,1.9-1.9v-5.9c0-1.1,0.6-1.9,1.2-1.9c7.6,0,13,7.3,15.5,11.7c4,6.9,6.5,16,6.5,23.6c0,4.6-0.9,8.5-2.6,11.1
	c-1.8,2.7-4.4,4.1-7.8,4.1H44.2c-0.6,0-1.2-0.8-1.2-1.9V43c0-1-0.8-1.9-1.9-1.9s-1.9,0.8-1.9,1.9v21.5c0,3.1,2.2,5.6,5,5.6h11.7
	c4.7,0,8.5-2,11-5.9c2-3.2,3.1-7.8,3.1-13.1C70,42.7,67.4,33.1,62.9,25.5z M45.5,48.3c0,1,0.8,1.9,1.9,1.9c1,0,1.9-0.8,1.9-1.9v-5.5
	l4.9,2.3c0.9,0.4,2.1,0,2.5-0.9s0-2.1-0.9-2.5l-7.3-3.5L36.9,25.8v-14c0-1-0.8-1.9-1.9-1.9c-1,0-1.9,0.8-1.9,1.9v14L21.5,38.3
	l-7.3,3.5c-0.9,0.4-1.3,1.6-0.9,2.5c0.4,0.9,1.6,1.3,2.5,0.9l4.9-2.3v5.5c0,1,0.8,1.9,1.9,1.9s1.9-0.8,1.9-1.9v-7.7L35,29.3
	l10.5,11.3V48.3L45.5,48.3z"/>
</svg>
