<svg xmlns="http://www.w3.org/2000/svg" xmlns:xlink="http://www.w3.org/1999/xlink" viewBox="0 0 280.76 42.8"><defs><style>.cls-1,.cls-4{fill:none;}.cls-2{fill:#e30613;}.cls-3{clip-path:url(#clip-path);}.cls-4{stroke:#fff;stroke-miterlimit:3.86;stroke-width:0.5px;}</style><clipPath id="clip-path"><path class="cls-1" d="M62.23.4A12.1,12.1,0,0,0,56.8,1.59a9.25,9.25,0,0,0-4,3.51,11,11,0,0,0-1.39,5.69v.53a15.7,15.7,0,0,0,1.12,6,15.92,15.92,0,0,0,3.18,5.3,17,17,0,0,0,5,3.57,15.88,15.88,0,0,0,6.42,1.33c.47,0,.8-.07,1.06-.07l1.59-6.16a3.05,3.05,0,0,1-.86.07,10.45,10.45,0,0,1-5.5-1.46,9.08,9.08,0,0,1-3.51-3.57A9,9,0,0,1,58.72,12a5.74,5.74,0,0,1,.53-2.65,5.39,5.39,0,0,1,1.59-1.85,6.27,6.27,0,0,1,2.65-.59h5.69L67.66.4Zm8.89,0V27.21H88.47L90,21.12H78.41V16.68h8.21l1.66-6.29H78.41V6.62H89.2L87.68.4ZM210.72.4V8.87H203.5V.4h-7V24.63a25.65,25.65,0,0,0,.26,3.77,8.4,8.4,0,0,0,.73,3L204,27.21a1.56,1.56,0,0,1-.33-.86,7.11,7.11,0,0,1-.13-1.72v-9.8h7.22V27.21H218V.4ZM133.4.33l-6.09,7.61L121.68.33h-6.62v27h7.22v-16l5,7.22,5.49-7.22v16H140V.33ZM92.62.13,90.76,6.29h10.4c2.71,0,4,.66,4,1.92,0,.93-.6,2.05-1.92,3.31a16.46,16.46,0,0,1-4,2.85V7.09h-7V27.21h7V21.58a30.45,30.45,0,0,0,6.29-3.38,18.7,18.7,0,0,0,4.9-4.77,10.06,10.06,0,0,0,2-6c0-2.71-1-4.63-2.91-5.69A16,16,0,0,0,101.89.13Zm66.24,0L151.17,9.6V.13h-6.88V27.21h6.88V19.8l7.69-9.4V27.21h7V.13Zm18.59,18.27a17.75,17.75,0,0,1-1.65-7.08,8.24,8.24,0,0,1-.07-1.13c0-2.65,1.59-3.91,4.9-3.91s4.84,1.46,4.84,4.37v.8a15.4,15.4,0,0,1-.33,2.38,25.31,25.31,0,0,1-.93,3.31,12.31,12.31,0,0,1-1.46,3,2.73,2.73,0,0,1-2.12,1.19c-1.26-.07-2.32-1-3.18-2.91M173.07,1.46A8.38,8.38,0,0,0,169.3,5.1a11.36,11.36,0,0,0-1,4.77v.86a23,23,0,0,0,.79,5.89,25.17,25.17,0,0,0,2.32,5.69,13.18,13.18,0,0,0,3.9,4.17,9,9,0,0,0,5.3,1.59,9.84,9.84,0,0,0,4.77-1.26,12.28,12.28,0,0,0,4-3.71,17.39,17.39,0,0,0,2.59-5.69,27.35,27.35,0,0,0,.93-7.22V9.47a9.08,9.08,0,0,0-2.45-6.16A9.44,9.44,0,0,0,185.65.6a22.21,22.21,0,0,0-5.23-.6,15.25,15.25,0,0,0-7.35,1.46"/></clipPath></defs><title>Asset 1</title><g id="Layer_2" data-name="Layer 2"><g id="Isolation_Mode" data-name="Isolation Mode"><g id="Logo"><path class="cls-2" d="M180.62,6.29c-3.31,0-4.9,1.26-4.9,3.91a8.41,8.41,0,0,0,.06,1.13,17.72,17.72,0,0,0,1.65,7.08c.86,1.92,1.92,2.85,3.18,2.91a2.73,2.73,0,0,0,2.12-1.19,12.34,12.34,0,0,0,1.46-3,25.37,25.37,0,0,0,.93-3.31,15.35,15.35,0,0,0,.33-2.38v-.79c0-2.91-1.59-4.3-4.84-4.37m0,21.78a9,9,0,0,1-5.3-1.59,13.16,13.16,0,0,1-3.9-4.17,25.14,25.14,0,0,1-2.32-5.69,23,23,0,0,1-.79-5.89V9.86a11.36,11.36,0,0,1,1-4.77,8.37,8.37,0,0,1,3.77-3.64A15.24,15.24,0,0,1,180.42,0a22.19,22.19,0,0,1,5.23.59,9.43,9.43,0,0,1,4.77,2.71,9.09,9.09,0,0,1,2.45,6.16v.73a27.34,27.34,0,0,1-.93,7.22,17.39,17.39,0,0,1-2.59,5.69,12.29,12.29,0,0,1-4,3.71,9.84,9.84,0,0,1-4.77,1.26m-14.75-.86h-7V10.39l-7.69,9.4v7.42h-6.88V.13h6.88V9.6L158.85.13h7Zm-50.81.13V.33h6.62l5.63,7.61L133.4.33H140v27h-7.15v-16l-5.49,7.22-5-7.22v16Zm-22.78-.13V7.08h7v7.28a16.37,16.37,0,0,0,4-2.85c1.33-1.26,1.92-2.38,1.92-3.31,0-1.26-1.33-1.92-4-1.92H90.76L92.61.13h9.27a16,16,0,0,1,7.68,1.65c1.92,1.06,2.91,3,2.91,5.69a10.05,10.05,0,0,1-2,6,18.73,18.73,0,0,1-4.9,4.77,30.57,30.57,0,0,1-6.29,3.38v5.63Zm-21.16,0V.4H87.68L89.2,6.62H78.41v3.77h9.87l-1.66,6.29H78.41v4.44H90l-1.52,6.09ZM51.44,11.32v-.53A11,11,0,0,1,52.83,5.1a9.24,9.24,0,0,1,4-3.51A12.09,12.09,0,0,1,62.23.4h5.43l1.52,6.49H63.49a6.29,6.29,0,0,0-2.65.59,5.39,5.39,0,0,0-1.59,1.86A5.74,5.74,0,0,0,58.72,12a9,9,0,0,0,1.2,4.37,9.08,9.08,0,0,0,3.5,3.57,10.46,10.46,0,0,0,5.5,1.46,3.05,3.05,0,0,0,.86-.07l-1.59,6.16c-.26,0-.59.07-1.06.07a15.9,15.9,0,0,1-6.42-1.32,17,17,0,0,1-5-3.57,16,16,0,0,1-3.18-5.3,15.73,15.73,0,0,1-1.12-6m145,13.31V.4h7V8.87h7.22V.4H218V27.21h-7.28V14.83H203.5v9.8a7.11,7.11,0,0,0,.13,1.72,1.55,1.55,0,0,0,.33.86l-6.49,4.17a8.45,8.45,0,0,1-.73-3,25.65,25.65,0,0,1-.26-3.77"/><path class="cls-2" d="M3,41.11,2.4,41c-.1,0-.1-.37,0-.55s.46-.85.58-1.1,5.68-10.2,5.68-10.2.3-.41.58-.3.44.37.35.53S3.06,41.12,3,41.11"/><path class="cls-2" d="M8.08,41.11,7.53,41c-.1,0-.1-.37,0-.55s.46-.85.58-1.1S14,29.11,14,29.11s.3-.42.58-.3.44.37.35.53S8.19,41.12,8.08,41.11"/><path class="cls-2" d="M13.45,40.87l-.55-.07c-.1,0-.1-.37,0-.56s6.28-11.13,6.28-11.13.3-.42.58-.3.44.37.35.53-6.5,11.54-6.61,11.53"/><path class="cls-2" d="M24.05,40.94c-.11,0-6,0-6.06-.06s-.1-.37,0-.56.45-.85.58-1.1,5.9-10.42,5.9-10.42l10.57,0a7,7,0,0,0,.69,1.82c0,.07.31,1.67-.14,2.12-.18.18-.27.3-.51.51s-6.32.3-6.32.3a5.73,5.73,0,0,0-1.48,1.75c-.34.61-3.14,5.65-3.18,5.65"/><path class="cls-2" d="M7.68,28.17h2.44a5.1,5.1,0,0,0,.73-.76,1.45,1.45,0,0,0,.36-.7c0-.2,0-.28-.22-.28l-4.15,0a.36.36,0,0,0-.38.38,1.63,1.63,0,0,0,.6.9,5,5,0,0,0,.61.43"/><path class="cls-2" d="M5.36,26h6.18c.44,0-.44-1.63-.62-1.85s-6.14,0-6.35,0a.36.36,0,0,0-.38.38,1.64,1.64,0,0,0,.6.9,5.69,5.69,0,0,1,.58.57"/><path class="cls-2" d="M3.23,23.46h7.69c.44,0-.37-1.59-.55-1.8s-7.71,0-7.92,0a.36.36,0,0,0-.38.38,1.63,1.63,0,0,0,.6.9,5.76,5.76,0,0,1,.57.57"/><path class="cls-2" d="M1.6,21h8.47c.44,0-.29-1.75-.55-1.84s-8,0-8.17,0A.36.36,0,0,0,1,19.5a4.68,4.68,0,0,0,.37,1A1.3,1.3,0,0,0,1.6,21"/><path class="cls-2" d="M.74,18.54H9.49c.44,0-.37-1.59-.55-1.8s-8,0-8.18,0a.36.36,0,0,0-.38.38,2.15,2.15,0,0,0,.08.87,3.35,3.35,0,0,0,.28.6"/><path class="cls-2" d="M.28,15.91H8.87c.44,0-.28-1.38-.46-1.59s-7.8,0-8,0a.36.36,0,0,0-.38.38,2.09,2.09,0,0,0,.09.87c.14.38.19.39.19.39"/><path class="cls-2" d="M.51,13.56H7.94c.44,0-.12-1.45-.3-1.66s-6.81,0-7,0a.36.36,0,0,0-.38.38,2.08,2.08,0,0,0,.09.87c.13.38.18.39.18.39"/><path class="cls-2" d="M.88,11h6.3c.44,0,.32-1.48,0-1.78-.14-.14-5.47,0-5.68,0s-.39.24-.53.43-.46.44-.32.81A2.31,2.31,0,0,0,.88,11"/><path class="cls-2" d="M2.26,8.44H8c.4,0,.52-.72.9-.72s.86.72,1.13.72h2.33c.44,0,1.22-1.11.9-1.41-.14-.14-10.13,0-10.34,0s-.39.24-.52.43S1.9,7.93,2,8.3s.23.14.23.14"/><path class="cls-2" d="M4.07,6.08H31.18c.22,0,.34-.34.12-.74a5.33,5.33,0,0,0-1-1c-.14-.14-25,0-25.23,0s-.51.36-.69.51c-.35.28-.69.37-.56.74a2.19,2.19,0,0,0,.23.51"/><path class="cls-2" d="M6.53,3.63c1.45,0,20.84-.25,21.57-.25.22,0,.35,0,.12-.37S27,2.13,26.89,2,8.82,2,8.61,2a2.63,2.63,0,0,0-.93.5C7.34,2.78,6,3.63,6.53,3.63"/><path class="cls-2" d="M21.14,1.26a14.33,14.33,0,0,0,1.62,0c.37.07.76-.32.18-.46A23.51,23.51,0,0,0,19.46.2,18.83,18.83,0,0,0,14.74.11a17.3,17.3,0,0,0-2.16.36c-.68.13-1.4.55-1,.74,1.29,0,9.55,0,9.55,0"/><polygon class="cls-2" points="12.1 11.05 12.72 11.05 12.35 9.5 11.79 9.48 12.1 11.05"/><polygon class="cls-2" points="17.32 11.05 17.94 11.05 17.56 9.5 17 9.48 17.32 11.05"/><polygon class="cls-2" points="12.81 13.54 13.43 13.54 12.93 11.67 12.36 11.65 12.81 13.54"/><polygon class="cls-2" points="18.07 13.51 18.7 13.51 18.14 11.67 17.58 11.65 18.07 13.51"/><polygon class="cls-2" points="13.53 16.03 14.15 16.03 13.64 14.16 13.08 14.14 13.53 16.03"/><polygon class="cls-2" points="18.79 16 19.41 16 18.86 14.16 18.29 14.14 18.79 16"/><polygon class="cls-2" points="14.18 18.54 14.8 18.54 14.29 16.68 13.72 16.65 14.18 18.54"/><polygon class="cls-2" points="19.55 18.46 20.17 18.46 19.62 16.67 19.05 16.65 19.55 18.46"/><polygon class="cls-2" points="14.82 20.9 15.44 20.9 14.94 19.03 14.37 19.01 14.82 20.9"/><polygon class="cls-2" points="19.67 19.06 20.17 20.92 20.84 20.87 20.29 19.03 19.67 19.06"/><polygon class="cls-2" points="15.49 23.44 16.11 23.44 15.6 21.57 15.04 21.55 15.49 23.44"/><polygon class="cls-2" points="20.34 21.57 20.85 23.44 21.63 23.44 21.07 21.59 20.34 21.57"/><path class="cls-2" d="M15.69,23.91A5.1,5.1,0,0,1,16,25.13a4.87,4.87,0,0,1-.07.83h.87l-.52-2Z"/><polygon class="cls-2" points="20.83 23.92 21.3 25.95 22.16 25.95 21.74 23.94 20.83 23.92"/><path class="cls-2" d="M14.54,28.12a1.36,1.36,0,0,1,.07-.53,7,7,0,0,1,.54-.75,2,2,0,0,1,.42-.41h.91a1.66,1.66,0,0,1-.28.63,5.61,5.61,0,0,1-.63.77c-.21.18-.23.26-.23.26Z"/><path class="cls-2" d="M19.72,28.12a1.38,1.38,0,0,1,.07-.53,7.18,7.18,0,0,1,.54-.75,2.11,2.11,0,0,1,.42-.41h.91a1.66,1.66,0,0,1-.28.63,5.35,5.35,0,0,1-.63.77c-.21.18-.23.26-.23.26Z"/><path class="cls-2" d="M14.78,7.29a.2.2,0,0,1,0-.29,8.33,8.33,0,0,1,1.43-.07l1.5,0a.29.29,0,0,1,.22.47,6.33,6.33,0,0,1-.43.65c-.11.12,0,.16-.49.16a2.38,2.38,0,0,1-1.17-.32,9.9,9.9,0,0,1-1.07-.58"/><path class="cls-2" d="M21,6.88H31.74a1.1,1.1,0,0,1,.85.23c.25.24.49.38.3.69a1.34,1.34,0,0,1-.37.42H21.94c-.17,0-.12-.44-.37-.6a2.88,2.88,0,0,0-.64-.25c-.2-.08-.2-.19-.2-.33s.12-.16.28-.16"/><path class="cls-2" d="M22.27,9.3h11a.55.55,0,0,1,.56.41c.13.33.21.68.28.88s0,.3-.1.3H22.7c-.19,0-.36-.64-.43-1a1.65,1.65,0,0,1,0-.62"/><path class="cls-2" d="M23.25,11.68H33.9c.26,0,.5.28.5.66a3,3,0,0,1-.08.86.7.7,0,0,1-.15.19H23.52c-.15,0-.51-.44-.57-.81s-.08-.58,0-.7.13-.2.28-.2"/><path class="cls-2" d="M23.73,14.18H34c.26,0,.5.28.5.66a1.91,1.91,0,0,1-.3.86.57.57,0,0,1-.24.18H24c-.15,0-.51-.44-.57-.81s-.08-.58,0-.7.13-.2.28-.2"/><path class="cls-2" d="M24.39,16.68c.15,0,9.56,0,9.85,0s.43.32.69.6a.94.94,0,0,1,.3.92c0,.12-.24.19-.24.19H24.66c-.15,0-.51-.44-.57-.81s-.08-.58,0-.7.13-.2.28-.2"/><path class="cls-2" d="M25.12,18.89c.14,0,10.21,0,10.5,0s.36.31.63.59A3.2,3.2,0,0,1,37,20.54a1.41,1.41,0,0,1,0,.36H25.39c-.14,0-.5-.74-.57-1.11s-.08-.59,0-.7.14-.2.28-.2"/><path class="cls-2" d="M26,21.52c.15,0,10.21,0,10.5,0s1.08-.06,1.35.22a1.19,1.19,0,0,1,.23,1.3,3,3,0,0,1-.39.41H26.26c-.15,0-.5-.65-.57-1s-.08-.58,0-.7.13-.2.28-.2"/><path class="cls-2" d="M24.83,28.11c-.11,0-.11-.24.16-.63a4.44,4.44,0,0,1,.78-.84,1.81,1.81,0,0,1,1-.15h8.59c.44,0,.7.07.51.61s-.3,1-.53,1-10.4,0-10.5,0"/><path class="cls-2" d="M26.26,25.94h9.17c.13,0,.38-.23.21-.42s-.24-.42-.11-.58a.62.62,0,0,0,.18-.63c-.11-.24-.14-.36-.31-.38s-8.6,0-8.82,0a.33.33,0,0,0-.34.35c0,.2.09.3.17.46s.11.3,0,.41a.54.54,0,0,0-.24.4,1.34,1.34,0,0,0,.12.39"/><polygon class="cls-2" points="80.56 40.74 80.56 33.31 81.55 33.31 81.55 36.36 85.41 36.36 85.41 33.31 86.39 33.31 86.39 40.74 85.41 40.74 85.41 37.24 81.55 37.24 81.55 40.74 80.56 40.74"/><polygon class="cls-2" points="91.67 33.31 92.56 33.31 92.56 39.19 96.51 33.31 97.5 33.31 97.5 40.74 96.61 40.74 96.61 34.87 92.65 40.74 91.67 40.74 91.67 33.31"/><polygon class="cls-2" points="102.74 33.31 103.72 33.31 103.72 39.86 107.59 39.86 107.59 33.31 108.58 33.31 108.58 39.86 109.26 39.86 109.26 42.8 108.39 42.8 108.39 40.74 102.74 40.74 102.74 33.31"/><polygon class="cls-2" points="114.06 40.74 114.06 33.31 119.43 33.31 119.43 34.19 115.04 34.19 115.04 36.46 119.15 36.46 119.15 37.33 115.04 37.33 115.04 39.86 119.6 39.86 119.6 40.74 114.06 40.74"/><path class="cls-2" d="M125.57,36.84h1.92a2,2,0,0,0,1.35-.35,1.26,1.26,0,0,0,.4-1,1.34,1.34,0,0,0-.24-.8,1.11,1.11,0,0,0-.62-.44,4.2,4.2,0,0,0-.92-.07h-1.9Zm-1,3.89V33.31h2.8a6.89,6.89,0,0,1,1.13.07,2.26,2.26,0,0,1,.92.35,1.81,1.81,0,0,1,.59.72,2.25,2.25,0,0,1,.23,1,2.28,2.28,0,0,1-.6,1.6,2.89,2.89,0,0,1-2.18.66h-1.9v3Z"/><polygon class="cls-2" points="135.15 33.31 139.95 33.31 139.95 34.19 136.13 34.19 136.13 40.74 135.15 40.74 135.15 33.31"/><path class="cls-2" d="M144.56,37.14a3,3,0,0,0,.72,2.11,2.52,2.52,0,0,0,3.64,0,3.15,3.15,0,0,0,.72-2.21,3.81,3.81,0,0,0-.31-1.58,2.35,2.35,0,0,0-.9-1,2.43,2.43,0,0,0-1.32-.37,2.51,2.51,0,0,0-1.8.72,3.2,3.2,0,0,0-.75,2.39m-1,0a4,4,0,0,1,1-2.89,3.37,3.37,0,0,1,2.56-1,3.56,3.56,0,0,1,1.85.49A3.2,3.2,0,0,1,150.21,35a4.75,4.75,0,0,1,0,4,3.12,3.12,0,0,1-1.29,1.35,3.68,3.68,0,0,1-1.8.46,3.51,3.51,0,0,1-1.87-.51A3.26,3.26,0,0,1,144,39a4.19,4.19,0,0,1-.43-1.85"/><path class="cls-2" d="M156,33.31h4.65v7.42h-1V34.19H157V38a9.55,9.55,0,0,1-.11,1.71,1.45,1.45,0,0,1-.46.84,1.31,1.31,0,0,1-.89.3,3.1,3.1,0,0,1-.78-.12l.17-.87a1.11,1.11,0,0,0,.41.1.56.56,0,0,0,.5-.25,2.58,2.58,0,0,0,.17-1.18Z"/><polygon class="cls-2" points="165.89 33.31 166.78 33.31 166.78 39.19 170.74 33.31 171.72 33.31 171.72 40.74 170.83 40.74 170.83 34.87 166.88 40.74 165.89 40.74 165.89 33.31"/><polygon class="cls-2" points="176.99 40.74 176.99 33.31 177.98 33.31 177.98 36.36 181.83 36.36 181.83 33.31 182.82 33.31 182.82 40.74 181.83 40.74 181.83 37.24 177.98 37.24 177.98 40.74 176.99 40.74"/><g class="cls-3"><path class="cls-4" d="M280.76,5.26H40.87M280.76,3.45H40.87m239.89-2H40.87"/></g></g></g></g></svg>