<?xml version="1.0" encoding="utf-8"?>
<!-- Generator: Adobe Illustrator 22.0.1, SVG Export Plug-In . SVG Version: 6.00 Build 0)  -->
<svg version="1.1" id="Isolation_Mode" xmlns="http://www.w3.org/2000/svg" xmlns:xlink="http://www.w3.org/1999/xlink" x="0px"
	 y="0px" viewBox="0 0 242.1 42.8" style="enable-background:new 0 0 242.1 42.8;" xml:space="preserve">
<style type="text/css">
	.st0{fill:#E30613;}
	.st1{clip-path:url(#SVGID_2_);fill:none;stroke:#FFFFFF;stroke-width:0.5;stroke-miterlimit:3.864;}
</style>
<g id="Logo_1_">
	<g>
		<path class="st0" d="M180.5,6.2c-3.3,0-4.9,1.3-4.9,3.9c0,0.3,0,0.6,0.1,1.1c0.1,2.7,0.7,5.1,1.7,7.1c0.9,1.9,1.9,2.8,3.2,2.9
			c0.8,0,1.5-0.4,2.1-1.2c0.6-0.9,1.1-1.9,1.5-3c0.4-1.2,0.7-2.3,0.9-3.3c0.2-1.1,0.3-1.9,0.3-2.4v-0.8
			C185.4,7.7,183.8,6.3,180.5,6.2 M180.5,28c-2.1,0-3.8-0.5-5.3-1.6c-1.5-1-2.8-2.4-3.9-4.2c-1-1.8-1.8-3.7-2.3-5.7s-0.8-4-0.8-5.9
			V9.8c0-1.7,0.3-3.3,1-4.8s2-2.7,3.8-3.6c1.8-1,4.2-1.5,7.4-1.5c1.9,0,3.6,0.2,5.2,0.6c1.7,0.4,3.4,1.3,4.8,2.7
			c1.5,1.4,2.3,3.4,2.5,6.2v0.7c0,2.6-0.3,5-0.9,7.2c-0.6,2.3-1.5,4.1-2.6,5.7c-1.2,1.7-2.4,2.8-4,3.7C183.8,27.5,182.3,28,180.5,28
			 M165.8,27.1h-7V10.3l-7.7,9.4v7.4h-6.9v-27h6.9v9.5l7.7-9.5h7V27.1z M115,27.3v-27h6.6l5.6,7.6l6.1-7.6h6.6v27h-7.2v-16l-5.5,7.2
			l-5-7.2v16H115z M92.2,27.1V7h7v7.3c1.3-0.7,2.7-1.6,4-2.8c1.3-1.3,1.9-2.4,1.9-3.3c0-1.3-1.3-1.9-4-1.9H90.7l1.9-6.2h9.3
			c3.2,0,5.8,0.6,7.7,1.7c1.9,1.1,2.9,3,2.9,5.7c0,2.1-0.7,4.1-2,6s-2.9,3.4-4.9,4.8s-4.1,2.5-6.3,3.4v5.6h-7.1V27.1z M71,27.1V0.3
			h16.6l1.5,6.2H78.3v3.8h9.9l-1.7,6.3h-8.2V21h11.6l-1.5,6.1H71z M51.4,11.3v-0.5c0-2.3,0.5-4.1,1.4-5.7c1-1.6,2.3-2.7,4-3.5
			c1.6-0.8,3.4-1.2,5.4-1.2h5.4l1.5,6.5h-5.7c-1.1,0-1.9,0.3-2.7,0.6C60,8,59.5,8.6,59.1,9.4c-0.4,0.8-0.5,1.7-0.5,2.6
			c0,1.5,0.4,2.9,1.2,4.4s1.9,2.6,3.5,3.6c1.5,0.9,3.4,1.5,5.5,1.5c0.4,0,0.7,0,0.9-0.1l-1.6,6.2c-0.3,0-0.6,0.1-1.1,0.1
			c-2.3,0-4.4-0.5-6.4-1.3c-1.9-0.9-3.6-2.1-5-3.6s-2.5-3.3-3.2-5.3C51.7,15.4,51.4,13.3,51.4,11.3 M196.4,24.6V0.3h7v8.5h7.2V0.3
			h7.3v26.8h-7.3V14.8h-7.2v9.8c0,0.7,0,1.2,0.1,1.7s0.2,0.7,0.3,0.9l-6.5,4.2c-0.3-0.7-0.6-1.6-0.7-3
			C196.5,27,196.4,25.8,196.4,24.6"/>
		<path class="st0" d="M2.9,41c-0.1,0-0.5,0-0.6,0s-0.1-0.4,0-0.6c0.1-0.2,0.5-0.9,0.6-1.1C3,39.1,8.5,29.1,8.5,29.1
			s0.3-0.4,0.6-0.3s0.4,0.4,0.3,0.5C9.4,29.5,3,41.1,2.9,41"/>
		<path class="st0" d="M8,41c-0.1,0-0.4,0-0.5,0s-0.1-0.4,0-0.6c0.1-0.2,0.5-0.9,0.6-1.1c0-0.2,5.8-10.3,5.8-10.3s0.3-0.4,0.6-0.3
			s0.4,0.4,0.3,0.5C14.7,29.4,8.1,41.1,8,41"/>
		<path class="st0" d="M13.4,40.8c-0.1,0-0.4-0.1-0.5-0.1s-0.1-0.4,0-0.6C12.8,40,19.1,29,19.1,29s0.3-0.4,0.6-0.3
			c0.3,0.1,0.4,0.4,0.3,0.5C19.9,29.4,13.5,40.8,13.4,40.8"/>
		<path class="st0" d="M24,40.9c-0.1,0-6,0-6.1-0.1c-0.1,0-0.1-0.4,0-0.6c0.1-0.2,0.5-0.9,0.6-1.1c0.1-0.2,5.9-10.4,5.9-10.4H35
			c0,0,0.2,1.1,0.7,1.8c0,0.1,0.3,1.7-0.1,2.1c-0.2,0.2-0.3,0.3-0.5,0.5c-0.3,0.3-6.3,0.3-6.3,0.3c-0.7,0.6-1.1,1.1-1.5,1.8
			C26.8,35.8,24,40.9,24,40.9"/>
		<path class="st0" d="M7.6,28.1H10c0.1,0,0.6-0.6,0.7-0.8c0.2-0.2,0.4-0.5,0.4-0.7s0-0.3-0.2-0.3s-3.9,0-4.1,0s-0.4,0.1-0.4,0.4
			c0,0.2,0.3,0.6,0.6,0.9C7.3,27.9,7.6,28.1,7.6,28.1"/>
		<path class="st0" d="M5.3,25.9h6.2c0.4,0-0.4-1.6-0.6-1.8c-0.1-0.1-6.1,0-6.4,0c-0.2,0-0.4,0.1-0.4,0.4c0,0.2,0.3,0.6,0.6,0.9
			C5,25.6,5.3,25.9,5.3,25.9"/>
		<path class="st0" d="M3.2,23.4h7.7c0.4,0-0.4-1.6-0.6-1.8c-0.1-0.1-7.7,0-7.9,0C2.2,21.6,2,21.7,2,22c0,0.2,0.3,0.6,0.6,0.9
			C2.9,23.1,3.2,23.4,3.2,23.4"/>
		<path class="st0" d="M1.5,20.9H10c0.4,0-0.3-1.7-0.6-1.8c-0.3-0.1-8,0-8.2,0s-0.4,0.1-0.4,0.4c0,0.2,0.2,0.6,0.4,1
			C1.4,20.8,1.5,20.9,1.5,20.9"/>
		<path class="st0" d="M0.7,18.5h8.7c0.4,0-0.4-1.6-0.6-1.8c-0.1-0.1-8,0-8.2,0s-0.4,0.1-0.4,0.4c0,0.2,0,0.5,0.1,0.9
			C0.5,18.3,0.7,18.5,0.7,18.5"/>
		<path class="st0" d="M0.2,15.8h8.6c0.4,0-0.3-1.4-0.5-1.6c-0.1-0.1-7.8,0-8,0s-0.4,0.1-0.4,0.4c0,0.2,0,0.5,0.1,0.9
			C0.2,15.8,0.2,15.8,0.2,15.8"/>
		<path class="st0" d="M0.4,13.5h7.4c0.4,0-0.1-1.4-0.3-1.7c-0.1-0.1-6.8,0-7,0s-0.4,0.1-0.4,0.4c0,0.2,0,0.5,0.1,0.9
			C0.4,13.5,0.4,13.5,0.4,13.5"/>
		<path class="st0" d="M0.8,10.9h6.3c0.4,0,0.3-1.5,0-1.8C7,9,1.6,9.2,1.4,9.2S1,9.4,0.9,9.6C0.7,9.9,0.4,10,0.6,10.4
			C0.7,10.8,0.8,10.9,0.8,10.9"/>
		<path class="st0" d="M2.2,8.4h5.7c0.4,0,0.5-0.7,0.9-0.7c0.3,0,0.9,0.7,1.1,0.7h2.3c0.4,0,1.2-1.1,0.9-1.4C13,6.8,3,7,2.8,7
			S2.4,7.2,2.3,7.4C2.1,7.7,1.8,7.9,2,8.2C2.1,8.6,2.2,8.4,2.2,8.4"/>
		<path class="st0" d="M4,6h27.1c0.2,0,0.3-0.3,0.1-0.7c-0.2-0.4-0.8-0.9-1-1c-0.1-0.1-25,0-25.2,0c-0.2,0-0.5,0.4-0.7,0.5
			C4,5,3.6,5.1,3.8,5.5C3.9,5.9,4,6,4,6"/>
		<path class="st0" d="M6.5,3.6c1.5,0,20.8-0.3,21.6-0.3c0.2,0,0.3,0,0.1-0.4C28,2.5,27,2,26.9,1.9s-18.1,0-18.3,0
			c-0.2,0-0.7,0.4-0.9,0.5C7.3,2.7,5.9,3.6,6.5,3.6"/>
		<path class="st0" d="M21.1,1.2c0,0,1.2,0.1,1.6,0c0.4,0.1,0.8-0.3,0.2-0.5c-1.4-0.3-2.1-0.5-3.5-0.6c-1.8-0.2-2.9-0.3-4.7-0.1
			c-0.8,0.1-0.7,0.1-2.2,0.4c-0.7,0.1-1.4,0.5-1,0.7C12.8,1.2,21.1,1.2,21.1,1.2"/>
	</g>
	<polygon class="st0" points="12,11 12.6,11 12.3,9.4 11.7,9.4 	"/>
	<polygon class="st0" points="17.2,11 17.9,11 17.5,9.4 16.9,9.4 	"/>
	<polygon class="st0" points="12.7,13.5 13.4,13.5 12.8,11.6 12.3,11.6 	"/>
	<polygon class="st0" points="18,13.4 18.6,13.4 18.1,11.6 17.5,11.6 	"/>
	<polygon class="st0" points="13.4,16 14.1,16 13.6,14.1 13,14.1 	"/>
	<polygon class="st0" points="18.7,15.9 19.3,15.9 18.8,14.1 18.2,14.1 	"/>
	<polygon class="st0" points="14.1,18.5 14.7,18.5 14.2,16.6 13.6,16.6 	"/>
	<polygon class="st0" points="19.5,18.4 20.1,18.4 19.5,16.6 19,16.6 	"/>
	<polygon class="st0" points="14.7,20.8 15.4,20.8 14.9,19 14.3,18.9 	"/>
	<polygon class="st0" points="19.6,19 20.1,20.9 20.8,20.8 20.2,19 	"/>
	<polygon class="st0" points="15.4,23.4 16,23.4 15.5,21.5 15,21.5 	"/>
	<polygon class="st0" points="20.3,21.5 20.8,23.4 21.5,23.4 21,21.5 	"/>
	<g>
		<path class="st0" d="M15.6,23.8c0,0,0.3,0.7,0.3,1.2c0,0.3-0.1,0.8-0.1,0.8h0.9l-0.5-2H15.6z"/>
	</g>
	<polygon class="st0" points="20.7,23.9 21.2,25.9 22.1,25.9 21.7,23.9 	"/>
	<g>
		<path class="st0" d="M14.5,28.1c0,0,0-0.4,0.1-0.5c0.1-0.2,0.4-0.5,0.5-0.7c0.2-0.2,0.4-0.4,0.4-0.4h0.9c0,0-0.1,0.4-0.3,0.6
			c-0.2,0.3-0.4,0.6-0.6,0.8C15.3,28,15.3,28,15.3,28L14.5,28.1z"/>
		<path class="st0" d="M19.6,28.1c0,0,0-0.4,0.1-0.5c0.1-0.2,0.4-0.5,0.5-0.7c0.2-0.2,0.4-0.4,0.4-0.4h0.9c0,0-0.1,0.4-0.3,0.6
			c-0.2,0.3-0.4,0.6-0.6,0.8C20.5,28,20.4,28,20.4,28L19.6,28.1z"/>
		<path class="st0" d="M14.7,7.2c-0.1-0.1-0.1-0.2,0-0.3c0.1-0.1,0.8-0.1,1.4-0.1s1.3,0,1.5,0S18,7,17.8,7.3
			c-0.1,0.2-0.3,0.5-0.4,0.6s0,0.2-0.5,0.2S16.2,8,15.7,7.8C15.3,7.6,14.8,7.3,14.7,7.2"/>
		<path class="st0" d="M20.9,6.8h10.7c0.3,0,0.6,0,0.8,0.2c0.3,0.2,0.5,0.4,0.3,0.7c-0.2,0.3-0.4,0.4-0.4,0.4H21.9
			c-0.2,0-0.1-0.4-0.4-0.6s-0.4-0.2-0.6-0.3c-0.2-0.1-0.2-0.2-0.2-0.3C20.7,6.8,20.8,6.8,20.9,6.8"/>
		<path class="st0" d="M22.2,9.2h11c0.2,0,0.4,0.1,0.6,0.4c0.1,0.3,0.2,0.7,0.3,0.9s0,0.3-0.1,0.3H22.6c-0.2,0-0.4-0.6-0.4-1
			C22.1,9.5,22.2,9.2,22.2,9.2"/>
		<path class="st0" d="M23.2,11.6h10.7c0.3,0,0.5,0.3,0.5,0.7s0,0.8-0.1,0.9c-0.1,0.1-0.1,0.2-0.1,0.2H23.4c-0.1,0-0.5-0.4-0.6-0.8
			c-0.1-0.4-0.1-0.6,0-0.7C23,11.7,23,11.6,23.2,11.6"/>
		<path class="st0" d="M23.6,14.1h10.2c0.3,0,0.5,0.3,0.5,0.7S34,15.6,34,15.7c-0.1,0.1-0.2,0.2-0.2,0.2h-9.9
			c-0.1,0-0.5-0.4-0.6-0.8c-0.1-0.4-0.1-0.6,0-0.7C23.5,14.2,23.5,14.1,23.6,14.1"/>
		<path class="st0" d="M24.3,16.6c0.1,0,9.6,0,9.9,0c0.2,0,0.4,0.3,0.7,0.6c0.3,0.3,0.4,0.6,0.3,0.9c0,0.1-0.2,0.2-0.2,0.2H24.6
			c-0.1,0-0.5-0.4-0.6-0.8s-0.1-0.6,0-0.7S24.2,16.6,24.3,16.6"/>
		<path class="st0" d="M25,18.8c0.1,0,10.2,0,10.5,0c0.2,0,0.4,0.3,0.6,0.6c0.3,0.3,0.6,0.7,0.7,1.1c0,0.1,0,0.4,0,0.4H25.3
			c-0.1,0-0.5-0.7-0.6-1.1s-0.1-0.6,0-0.7C24.9,18.9,24.9,18.8,25,18.8"/>
		<path class="st0" d="M25.9,21.4c0.1,0,10.2,0,10.5,0c0.2,0,1.1-0.1,1.3,0.2c0.3,0.3,0.5,0.8,0.2,1.3c-0.1,0.1-0.4,0.4-0.4,0.4
			H26.2c-0.1,0-0.5-0.7-0.6-1c-0.1-0.4-0.1-0.6,0-0.7C25.7,21.5,25.8,21.4,25.9,21.4"/>
		<path class="st0" d="M24.8,28c-0.1,0-0.1-0.2,0.2-0.6c0.3-0.4,0.6-0.7,0.8-0.8c0.2-0.1,0.6-0.1,1-0.1h8.6c0.4,0,0.7,0.1,0.5,0.6
			s-0.3,1-0.5,1C35,28.1,24.9,28.1,24.8,28"/>
		<path class="st0" d="M26.2,25.9h9.2c0.1,0,0.4-0.2,0.2-0.4c-0.2-0.2-0.2-0.4-0.1-0.6c0.1-0.2,0.3-0.4,0.2-0.6s-0.1-0.4-0.3-0.4
			s-8.6,0-8.8,0s-0.3,0.1-0.3,0.4c0,0.2,0.1,0.3,0.2,0.5s0.1,0.3,0,0.4c-0.2,0.1-0.2,0.3-0.2,0.4C26.1,25.6,26.2,25.9,26.2,25.9"/>
	</g>
	<polygon class="st0" points="80.5,40.7 80.5,33.2 81.5,33.2 81.5,36.3 85.3,36.3 85.3,33.2 86.3,33.2 86.3,40.7 85.3,40.7 
		85.3,37.2 81.5,37.2 81.5,40.7 	"/>
	<polygon class="st0" points="91.6,33.2 92.5,33.2 92.5,39.1 96.4,33.2 97.4,33.2 97.4,40.7 96.5,40.7 96.5,34.8 92.6,40.7 
		91.6,40.7 	"/>
	<polygon class="st0" points="102.7,33.2 103.6,33.2 103.6,39.8 107.5,39.8 107.5,33.2 108.5,33.2 108.5,39.8 109.2,39.8 
		109.2,42.7 108.3,42.7 108.3,40.7 102.7,40.7 	"/>
	<polygon class="st0" points="114,40.7 114,33.2 119.3,33.2 119.3,34.1 115,34.1 115,36.4 119.1,36.4 119.1,37.3 115,37.3 115,39.8 
		119.5,39.8 119.5,40.7 	"/>
	<g>
		<path class="st0" d="M125.5,36.8h1.9c0.6,0,1.1-0.1,1.4-0.4c0.3-0.2,0.4-0.6,0.4-1c0-0.3-0.1-0.6-0.2-0.8
			c-0.2-0.2-0.4-0.4-0.6-0.4c-0.2,0-0.5-0.1-0.9-0.1h-1.9L125.5,36.8L125.5,36.8z M124.5,40.7v-7.4h2.8c0.5,0,0.9,0,1.1,0.1
			c0.4,0.1,0.7,0.2,0.9,0.3c0.2,0.2,0.4,0.4,0.6,0.7c0.2,0.3,0.2,0.6,0.2,1c0,0.6-0.2,1.2-0.6,1.6c-0.4,0.4-1.1,0.7-2.2,0.7h-1.9v3
			C125.4,40.7,124.5,40.7,124.5,40.7z"/>
	</g>
	<polygon class="st0" points="135.1,33.2 139.9,33.2 139.9,34.1 136,34.1 136,40.7 135.1,40.7 	"/>
	<g>
		<path class="st0" d="M144.5,37.1c0,0.9,0.2,1.6,0.7,2.1s1.1,0.8,1.8,0.8s1.3-0.3,1.8-0.8s0.7-1.3,0.7-2.2c0-0.6-0.1-1.1-0.3-1.6
			s-0.5-0.8-0.9-1S147.5,34,147,34c-0.7,0-1.3,0.2-1.8,0.7S144.5,35.9,144.5,37.1 M143.5,37.1c0-1.2,0.3-2.2,1-2.9s1.5-1,2.6-1
			c0.7,0,1.3,0.2,1.9,0.5c0.6,0.3,1,0.8,1.3,1.4c0.3,0.6,0.4,1.3,0.4,2c0,0.8-0.2,1.4-0.5,2s-0.7,1-1.3,1.3s-1.2,0.5-1.8,0.5
			c-0.7,0-1.3-0.2-1.9-0.5c-0.6-0.3-1-0.8-1.3-1.4C143.6,38.3,143.5,37.7,143.5,37.1"/>
		<path class="st0" d="M155.9,33.2h4.6v7.4h-1v-6.5h-2.7v3.8c0,0.8,0,1.3-0.1,1.7s-0.2,0.6-0.5,0.8c-0.2,0.2-0.5,0.3-0.9,0.3
			c-0.2,0-0.5,0-0.8-0.1l0.2-0.9c0.2,0.1,0.3,0.1,0.4,0.1c0.2,0,0.4-0.1,0.5-0.3s0.2-0.6,0.2-1.2v-5.1H155.9z"/>
	</g>
	<polygon class="st0" points="165.8,33.2 166.7,33.2 166.7,39.1 170.7,33.2 171.6,33.2 171.6,40.7 170.8,40.7 170.8,34.8 
		166.8,40.7 165.8,40.7 	"/>
	<polygon class="st0" points="176.9,40.7 176.9,33.2 177.9,33.2 177.9,36.3 181.8,36.3 181.8,33.2 182.7,33.2 182.7,40.7 
		181.8,40.7 181.8,37.2 177.9,37.2 177.9,40.7 	"/>
	<g>
		<g>
			<g>
				<defs>
					<path id="SVGID_1_" d="M62.2,0.3c-2,0-3.8,0.4-5.4,1.2c-1.7,0.8-3,1.9-4,3.5c-0.9,1.6-1.4,3.4-1.4,5.7v0.5c0,2.1,0.3,4.1,1.1,6
						c0.7,2,1.8,3.8,3.2,5.3s3,2.6,5,3.6c2,0.9,4.1,1.3,6.4,1.3c0.5,0,0.8-0.1,1.1-0.1l1.6-6.2c-0.2,0.1-0.5,0.1-0.9,0.1
						c-2.1,0-4-0.5-5.5-1.5c-1.6-0.9-2.7-2.1-3.5-3.6s-1.2-2.9-1.2-4.4c0-1,0.1-1.9,0.5-2.6c0.4-0.7,0.9-1.4,1.6-1.9
						c0.7-0.3,1.6-0.6,2.7-0.6h5.7l-1.5-6.5h-5.5L62.2,0.3L62.2,0.3z M71,0.3v26.8h17.3l1.5-6.1H78.3v-4.4h8.2l1.7-6.3h-9.9V6.6
						h10.8l-1.5-6.2H71V0.3z M210.6,0.3v8.5h-7.2V0.3h-7v24.2c0,1.2,0.1,2.5,0.3,3.8c0.1,1.4,0.4,2.3,0.7,3l6.5-4.2
						c-0.1-0.1-0.3-0.4-0.3-0.9c-0.1-0.5-0.1-1.1-0.1-1.7v-9.8h7.2v12.4h7.3V0.3H210.6z M133.3,0.3l-6.1,7.6l-5.6-7.6H115v27h7.2
						v-16l5,7.2l5.5-7.2v16h7.2v-27C139.9,0.3,133.3,0.3,133.3,0.3z M92.5,0.1l-1.9,6.2H101c2.7,0,4,0.7,4,1.9
						c0,0.9-0.6,2.1-1.9,3.3c-1.3,1.3-2.6,2.2-4,2.8V7h-7v20.1h7v-5.6c2.2-0.9,4.3-2,6.3-3.4c2-1.3,3.6-2.9,4.9-4.8s2-3.8,2-6
						c0-2.7-1-4.6-2.9-5.7s-4.5-1.7-7.7-1.7h-9.2C92.5-0.1,92.5,0.1,92.5,0.1z M158.8,0.1l-7.7,9.5V0.1h-6.9v27.1h6.9v-7.4l7.7-9.4
						v16.8h7V0.1H158.8z M177.4,18.3c-1-2-1.5-4.4-1.7-7.1c-0.1-0.5-0.1-0.9-0.1-1.1c0-2.6,1.6-3.9,4.9-3.9c3.2,0.1,4.8,1.5,4.8,4.4
						v0.8c0,0.5-0.1,1.3-0.3,2.4s-0.5,2.1-0.9,3.3c-0.4,1.1-0.9,2.1-1.5,3c-0.7,0.8-1.3,1.2-2.1,1.2
						C179.3,21.2,178.2,20.3,177.4,18.3 M173,1.4c-1.8,0.9-3,2.2-3.8,3.6c-0.7,1.5-1,3-1,4.8v0.9c0,1.9,0.3,3.9,0.8,5.9
						s1.3,3.9,2.3,5.7c1.1,1.7,2.4,3.2,3.9,4.2c1.5,1.1,3.2,1.6,5.3,1.6c1.7,0,3.3-0.5,4.8-1.3c1.5-0.9,2.8-2.1,4-3.7
						c1.1-1.6,2-3.4,2.6-5.7c0.6-2.2,0.9-4.6,0.9-7.2V9.4c-0.2-2.7-1-4.8-2.5-6.2c-1.4-1.5-3-2.3-4.8-2.7c-1.7-0.4-3.4-0.6-5.2-0.6
						C177.2-0.1,174.8,0.4,173,1.4"/>
				</defs>
				<clipPath id="SVGID_2_">
					<use xlink:href="#SVGID_1_"  style="overflow:visible;"/>
				</clipPath>
				<path class="st1" d="M280.7,5.2H40.8 M280.7,3.4H40.8 M280.7,1.4H40.8"/>
			</g>
		</g>
	</g>
</g>
<g>
	<path class="st0" d="M230.3,3.9c0,2.2-1.7,4-4,4c-2.2,0-4-1.7-4-4c0-2.2,1.8-3.9,4-3.9C228.5-0.1,230.3,1.7,230.3,3.9z M223.2,3.9
		c0,1.7,1.3,3.1,3.1,3.1c1.7,0,3-1.4,3-3.1c0-1.7-1.3-3.2-3-3.2C224.5,0.7,223.2,2.1,223.2,3.9z M225.6,5.9h-0.9V2
		c0.4-0.1,0.9-0.1,1.5-0.1c0.7,0,1.1,0.1,1.4,0.3c0.2,0.2,0.4,0.5,0.4,0.9c0,0.4-0.3,0.8-0.8,0.9v0c0.4,0.1,0.6,0.4,0.7,1
		c0.1,0.6,0.2,0.8,0.3,1h-1c-0.1-0.1-0.2-0.5-0.3-1c-0.1-0.4-0.3-0.6-0.8-0.6h-0.4V5.9z M225.7,3.7h0.4c0.5,0,0.9-0.2,0.9-0.6
		c0-0.4-0.3-0.6-0.8-0.6c-0.2,0-0.4,0-0.5,0V3.7z"/>
</g>
</svg>
