<?xml version="1.0" encoding="utf-8"?>
<!-- Generator: Adobe Illustrator 21.1.0, SVG Export Plug-In . SVG Version: 6.00 Build 0)  -->
<svg version="1.1" id="Capa_1" xmlns="http://www.w3.org/2000/svg" xmlns:xlink="http://www.w3.org/1999/xlink" x="0px" y="0px"
	 viewBox="0 0 70 70" style="enable-background:new 0 0 70 70;" xml:space="preserve">
<style type="text/css">
	.st0{fill:#FFBE1D;}
</style>
<g>
	<g>
		<path class="st0" d="M52.9,52.4V29c0-0.9-0.3-2-1.2-2H14.5c-0.9,0-2.1,1.1-2.1,2v3.8h-1C5.2,32.8,0.1,38,0.1,44.3
			s5.1,11.5,11.4,11.5h1.8c1.8,8.2,9.1,14,18,14H36C45.9,70,52.9,62.6,52.9,52.4z M11.5,52.7c-4.5,0-8.1-3.7-8.1-8.2
			s3.6-8.2,8.1-8.2h1v16.3c0,0.2,0.4,0.2,0.4,0.2C13,52.7,11.5,52.7,11.5,52.7z M15.8,52.4v-22h33.8v22.1c0,8.2-5.6,14.2-13.5,14.2
			h-4.8C22.9,66.7,15.8,60.4,15.8,52.4z"/>
		<path class="st0" d="M26.4,21.8c-0.7,0.5-0.9,1.6-0.3,2.3c0.3,0.4,0.8,0.7,1.3,0.7c0.3,0,0.7-0.1,1-0.3c0.2-0.2,2.5-1.9,2.7-4.7
			c0.2-2-0.7-3.9-2.5-5.7c-3.2-3.2-0.6-6.1,0-6.7c0.7-0.7,0.7-1.6,0-2.3S27,4.4,26.3,5c-0.1,0.1-2.5,2.5-2.6,5.8
			c0,2.1,0.8,3.9,2.5,5.6c1.1,1.1,1.6,2.1,1.6,3C27.6,20.8,26.5,21.7,26.4,21.8z"/>
		<path class="st0" d="M38,21.8c-0.7,0.5-0.9,1.6-0.3,2.3c0.3,0.4,0.8,0.7,1.3,0.7c0.3,0,0.7-0.1,1-0.3c0.1-0.1,3-2.1,3.2-5.6
			c0.2-2.4-0.8-4.7-3-6.8c-1.4-1.4-2.1-2.9-2.1-4.4c0-2.6,2.1-4.8,2.1-4.8c0.7-0.7,0.7-1.6,0-2.3s-1.6-0.7-2.3,0c-0.2,0.1-3,3-3,7
			c0,2.5,1,4.7,3,6.8c1.5,1.5,2.1,2.9,2.1,4.2C39.8,20.4,38.1,21.7,38,21.8z"/>
	</g>
</g>
</svg>
