<svg xmlns="http://www.w3.org/2000/svg" viewBox="0 0 59.36 70.4"><defs><style>.cls-1,.cls-2{fill:#ea3910;}.cls-1{stroke:#ea3910;stroke-miterlimit:10;stroke-width:2px;}</style></defs><title>Asset 1</title><g id="Layer_2" data-name="Layer 2"><g id="Layer_1-2" data-name="Layer 1"><g id="Layer_2-2" data-name="Layer 2"><g id="Layer_1-2-2" data-name="Layer 1-2"><path class="cls-1" d="M31.08,1.9a33.47,33.47,0,0,1,12.4,2.5h.1a.37.37,0,0,0,.3.1,22,22,0,0,1,11.4,10.4,22.29,22.29,0,0,1,2,6.8h0a24.92,24.92,0,0,1-4.1,16.5c-.5.8-1.1,1.5-1.7,2.3-4,4.5-5.9,7.5-6.4,13.2-.2,2.4.4,5.1,2,8.5a4.2,4.2,0,0,1-2,5.6,3.92,3.92,0,0,1-1.8.4H25a4.23,4.23,0,0,1-4.2-3.8v-.1a6,6,0,0,0-1-2.7c-.3-.6-.7-1.5-1.2-2.6-1.2-2.8-2.5-3.1-4.4-3.2h-1.7c-2,0-4.3,0-5.8-1.6-1.3-1.5-.3-4.4-.2-4.7a1.93,1.93,0,0,0-.8-2.4c-.2-.1-.3-.3-.5-.4a1.42,1.42,0,0,1,.2-.6A2,2,0,0,0,5,43.8a2.36,2.36,0,0,1-.6-.9c-.2-.5-.1-.5.2-.9a3.37,3.37,0,0,0,.8-1.7c.3-1.5-.8-2.1-1.7-2.5a7.84,7.84,0,0,1-1.5-1c-.3-.3-.3-.5-.3-.5,0-.5.7-1.3,1.3-1.9l.6-.6a17.49,17.49,0,0,1,1.6-2c.7-.7,1.4-1.5,2.1-2.3a7.08,7.08,0,0,0,1-5.6c-.6-4,1-6.9,2.4-9.6.3-.5.5-1,.7-1.4a14,14,0,0,1,1-1.6l.1-.1c2-3.1,5.7-7.4,14.2-8.9a29.84,29.84,0,0,1,4.2-.4h0m0-.9a21.83,21.83,0,0,0-4.4.4c-8,1.5-12.1,5.2-14.8,9.3a17.39,17.39,0,0,0-1.1,1.8C9.38,15.4,6.88,19,7.58,24a7.11,7.11,0,0,1-.8,5c-1,1.3-2.5,2.6-3.7,4S0,35.9,1.68,37.3s3.1,1.4,2.9,2.8-1.6,1.5-1,3.1a3.53,3.53,0,0,0,.8,1.3,1.06,1.06,0,0,1,.2,1.2,1.55,1.55,0,0,0-.1,1.6c.7.8,1.5,1,1.1,2s-1.1,3.9.5,5.7c2.2,2.5,5.7,1.8,8.1,2,1.6.1,2.6.3,3.6,2.7,1.3,3,1.9,3.7,2.1,5.1h0A5.18,5.18,0,0,0,25,69.4h18.2a5.12,5.12,0,0,0,5.1-5.1h0a5.45,5.45,0,0,0-.5-2.2,15.94,15.94,0,0,1-1.9-8c.5-5.7,2.4-8.5,6.2-12.7a10.77,10.77,0,0,0,1.8-2.4,25.55,25.55,0,0,0,4.3-17.1h0a21.77,21.77,0,0,0-2.1-7A22.74,22.74,0,0,0,44.28,3.8c-.1-.1-.3-.1-.4-.2A37.46,37.46,0,0,0,31.08,1Z"/></g></g><path class="cls-2" d="M33.51,15.74l-9.43,1.63,2.49,2s-5.76,2.76-5.45,2.79l9.75-1.38L28,18.93Z"/><path class="cls-2" d="M23.82,7.81l-7.38,6.08,3.06.52s-3.71,5.23-3.4,5,7.71-5.83,7.71-5.83l-3.37-.32Z"/></g></g></svg>