<?xml version="1.0" encoding="utf-8"?>
<!-- Generator: Adobe Illustrator 21.1.0, SVG Export Plug-In . SVG Version: 6.00 Build 0)  -->
<svg version="1.1" id="Layer_1" xmlns="http://www.w3.org/2000/svg" xmlns:xlink="http://www.w3.org/1999/xlink" x="0px" y="0px"
	 viewBox="0 0 70 70" style="enable-background:new 0 0 70 70;" xml:space="preserve">
<style type="text/css">
	.st0{fill:#36A3FE;}
	.st1{fill:#36A3FE;stroke:#36A3FE;stroke-width:2;stroke-miterlimit:10;}
</style>
<path class="st0" d="M31.5,21.7c0.1-1.2,0.3-2.2,0.6-2.8c0.3-0.7,0.9-1.4,1.7-2.2l2.1-1.9c0.9-0.9,1.4-1.9,1.4-3
	c0.1-1.1-0.2-1.9-0.7-2.6c-0.5-0.6-1.3-1-2.4-1c-1-0.1-1.9,0.2-2.5,0.7c-0.7,0.5-1,1.2-1.1,2.2l-2.8-0.1c0.1-1.7,0.8-3,2-3.9
	c1.2-0.9,2.7-1.4,4.6-1.3c1.9,0.1,3.4,0.7,4.4,1.8c1,1.1,1.5,2.5,1.4,4.3c-0.1,1.8-1,3.5-2.7,5.1l-1.8,1.6c-0.8,0.8-1.2,1.9-1.3,3.5
	L31.5,21.7z M31.2,26.5c0-0.4,0.2-0.8,0.5-1.1c0.3-0.3,0.7-0.4,1.3-0.4c0.6,0,1,0.2,1.2,0.5c0.3,0.3,0.4,0.8,0.4,1.2
	c0,0.4-0.2,0.8-0.5,1.1c-0.3,0.3-0.7,0.4-1.3,0.4c-0.6,0-1-0.2-1.2-0.5C31.3,27.4,31.1,26.9,31.2,26.5z"/>
<path class="st0" d="M40.6,29.8c0.5-0.7,0.9-1.2,1.4-1.5c0.4-0.3,1-0.6,1.8-0.7l2-0.4c0.9-0.2,1.5-0.7,2-1.3
	c0.4-0.6,0.6-1.2,0.5-1.8c-0.1-0.6-0.4-1.1-1-1.5s-1.2-0.6-1.8-0.5c-0.6,0.1-1,0.4-1.4,0.9l-1.6-1.1c0.7-0.9,1.5-1.5,2.6-1.6
	c1-0.1,2.1,0.1,3.2,0.9c1.1,0.7,1.8,1.6,2,2.6c0.2,1,0,2-0.7,3.1c-0.7,1-1.8,1.7-3.5,2.1l-1.6,0.3c-0.7,0.2-1.4,0.7-2,1.6L40.6,29.8
	z M38.7,32.6c0.2-0.2,0.4-0.4,0.7-0.5c0.3-0.1,0.6,0,0.9,0.2s0.5,0.5,0.6,0.7c0,0.3,0,0.6-0.2,0.8c-0.2,0.2-0.4,0.4-0.7,0.5
	s-0.6,0-0.9-0.2c-0.3-0.2-0.5-0.5-0.6-0.7C38.4,33.2,38.5,32.8,38.7,32.6z"/>
<path class="st0" d="M21.7,30.2c-0.4-0.9-0.6-1.7-0.7-2.3c-0.1-0.6,0.1-1.4,0.4-2.2l0.8-2.2c0.3-1,0.3-1.9-0.1-2.7
	c-0.4-0.8-0.8-1.3-1.5-1.6s-1.3-0.2-2.1,0.1c-0.8,0.4-1.3,0.8-1.6,1.4c-0.3,0.6-0.3,1.3,0,2l-2.1,0.9c-0.6-1.2-0.6-2.4,0-3.5
	c0.5-1.1,1.4-2,2.8-2.6c1.4-0.6,2.7-0.8,3.8-0.4c1.1,0.4,2,1.3,2.6,2.6c0.6,1.3,0.6,2.9-0.1,4.7l-0.7,1.8c-0.3,0.9-0.1,1.8,0.4,3
	L21.7,30.2z M23.3,33.8c-0.2-0.3-0.2-0.7-0.1-1c0.1-0.3,0.4-0.6,0.8-0.8c0.4-0.2,0.8-0.2,1.1-0.1c0.3,0.1,0.6,0.4,0.7,0.7
	c0.2,0.3,0.2,0.7,0.1,1c-0.1,0.3-0.4,0.6-0.8,0.7s-0.8,0.2-1.1,0.1C23.6,34.4,23.4,34.1,23.3,33.8z"/>
<path class="st1" d="M31.1,2.3c4.2,0,8.4,0.9,12.3,2.5l0.1,0c0.1,0.1,0.2,0.1,0.3,0.1C49,7.2,52.9,10.8,55,15.2c1,2.1,1.7,4.4,2,6.7
	v0c1,7.7-2.5,14-4.1,16.4c-0.5,0.8-1.1,1.5-1.7,2.2c-4,4.4-5.8,7.4-6.3,13.1c-0.2,2.4,0.4,5.1,2,8.4c1,2.1,0.1,4.6-2,5.6
	c-0.6,0.3-1.2,0.4-1.8,0.4h-18c-2.2,0-3.9-1.6-4.2-3.8c0,0,0,0,0-0.1c-0.1-0.9-0.4-1.6-1-2.7c-0.3-0.6-0.7-1.4-1.2-2.6
	c-1.2-2.7-2.5-3-4.3-3.2c-0.5,0-1.1,0-1.7,0c-2,0-4.3,0-5.7-1.6c-1.4-1.6-0.4-4.4-0.3-4.7c0.5-1.3-0.3-2-0.8-2.4
	c-0.2-0.1-0.3-0.3-0.5-0.4c0-0.2,0.1-0.4,0.2-0.6c0.4-0.8,0.2-1.7-0.4-2.2c-0.3-0.2-0.4-0.6-0.6-0.9c-0.2-0.5-0.1-0.5,0.2-0.9
	c0.4-0.5,0.7-1,0.8-1.7c0.2-1.5-0.8-2.1-1.7-2.5c-0.5-0.3-1-0.6-1.5-1c-0.3-0.3-0.3-0.5-0.3-0.5c0-0.5,0.7-1.2,1.3-1.9
	c0.2-0.2,0.4-0.4,0.6-0.6c0.5-0.6,1.1-1.2,1.6-1.7c0.7-0.7,1.4-1.5,2.1-2.3c1-1.3,1.4-3.2,1-5.6c-0.6-3.9,1-6.9,2.3-9.5
	c0.3-0.5,0.5-1,0.7-1.4c0.3-0.6,0.6-1.1,0.9-1.6l0.1-0.1c2-3.1,5.6-7.3,14.1-8.8C28.3,2.4,29.7,2.2,31.1,2.3L31.1,2.3 M31.1,1.4
	c-1.5,0-2.9,0.1-4.4,0.4c-7.9,1.4-12,5.1-14.7,9.2c-0.4,0.6-0.7,1.2-1.1,1.8c-1.4,2.8-3.9,6.4-3.2,11.4C8.1,25.5,8.2,27.5,7,29
	c-1,1.3-2.5,2.6-3.7,4c-1.2,1.4-3,2.8-1.4,4.3c1.6,1.4,3.1,1.4,2.9,2.7c-0.2,1.4-1.6,1.4-1,3C4,43.5,4.3,44,4.7,44.3
	c0.3,0.3,0.4,0.8,0.2,1.2c-0.2,0.5-0.4,1.2-0.1,1.6c0.7,0.8,1.5,1,1.1,2c-0.4,1-1.1,3.9,0.5,5.6c2.2,2.4,5.7,1.8,8,2
	c1.5,0.1,2.6,0.2,3.6,2.6c1.2,3,1.9,3.7,2.1,5c0,0,0,0,0,0c0.3,2.6,2.5,4.6,5,4.6h18c2.8,0,5.1-2.3,5.1-5.1c0-0.7-0.2-1.5-0.5-2.2
	c-1.2-2.6-2.1-5.3-1.9-7.9c0.5-5.7,2.4-8.5,6.1-12.6c0.6-0.7,1.2-1.5,1.8-2.3c2.6-3.8,5.1-10,4.2-17v0c-0.3-2.4-1-4.8-2.1-7
	C53.4,9.7,49,6.3,44.2,4.1C44,4.1,43.9,4,43.7,4C39.7,2.3,35.4,1.4,31.1,1.4L31.1,1.4z"/>
</svg>
