<?xml version="1.0" encoding="utf-8"?>
<!-- Generator: Adobe Illustrator 21.1.0, SVG Export Plug-In . SVG Version: 6.00 Build 0)  -->
<svg version="1.1" id="Layer_1" xmlns="http://www.w3.org/2000/svg" xmlns:xlink="http://www.w3.org/1999/xlink" x="0px" y="0px"
	 viewBox="0 0 70 70" style="enable-background:new 0 0 70 70;" xml:space="preserve">
<style type="text/css">
	.st0{fill:#580DA7;}
</style>
<g>
	<path class="st0" d="M70,33.4c0-3.5-2-6.6-5.2-8c-0.8-4.9-4.8-8.7-9.7-9c-1.3-2.8-4.2-4.6-7.3-4.6l0,0l0,0c-0.4,0-0.8,0.1-1.2,0.1
		h-0.1c-0.4,0.1-0.9,0.2-1.3,0.3c-1.6-1.3-3.5-2-5.6-2c-1.7,0-3.3,0.5-4.6,1.4c-1.4-0.6-3-0.9-4.6-0.9c-3.2,0-6.3,1.3-8.4,3.8
		c-0.7-0.2-1.3-0.2-2-0.2c-2.8,0-5.4,1.4-6.9,3.9c-0.1,0-0.2,0-0.3,0c-0.2,0-0.3,0-0.4,0C12.2,18,12,18,11.8,18s-0.2,0.1-0.4,0.1
		s-0.3,0.1-0.5,0.2c-0.2,0-0.2,0.1-0.4,0.1c-0.2,0.1-0.3,0.1-0.4,0.2c-0.2,0.1-0.3,0.1-0.4,0.2c-0.1,0.1-0.2,0.1-0.3,0.2
		c-0.1-0.1-0.2,0-0.4,0.1l0,0c-2.8,1.5-4.6,4.4-4.9,7.7v0.1c-2.5,2.4-3.9,5.7-3.9,9.2c0,7,5.7,12.7,12.7,12.7c0.7,0,1.5-0.1,2.2-0.2
		c0.9,0.3,2,0.5,3,0.6c2,5,6.1,7.7,11.7,7.7c5.4,0,11.8,5.4,11.8,11.8v1.2h9l-1-7.3c6.2,0.6,12.1-3.4,13.7-9.6
		c0.2-1.1,0.4-2.2,0.4-3.2c3.7-1.3,6.3-4.9,6.3-8.9c0-1.3-0.2-2.6-0.8-3.8C69.7,35.9,70,34.6,70,33.4z M66.6,37.6
		c0.6,1,0.8,2,0.8,3.2c0,2.7-1.6,5.1-4,6.2c-1-4.6-4.6-8.4-9.3-9.6c-0.7-0.2-1.4,0.2-1.6,0.9c-0.2,0.7,0.2,1.4,0.9,1.6
		c4.2,1,7.2,4.6,7.6,8.8c0.2,1.2,0,2.4-0.2,3.5c-1.4,5.5-6.9,8.8-12.4,7.4l-1.8-0.5l1.1,8h-3.6C43.3,59.7,35.9,54,29.8,54
		c-4.2,0-7.2-1.7-9-5.2c0-0.1,0-0.2-0.1-0.2c-1.3-2.8-0.2-6.1,2.7-7.5c0.6-0.3,0.9-1.1,0.6-1.7c-0.3-0.6-1.1-0.9-1.7-0.6
		c-3,1.4-4.6,4.4-4.6,7.5c-0.7-0.1-1.4-0.2-2-0.5l-0.3-0.2L15,45.8C14.4,46,13.7,46,13,46C7.4,46,2.8,41.4,2.8,35.8
		c0-2,0.6-4.1,1.8-5.7c0.9,3,3.5,5.4,6.5,6.1c-0.2,0.4-0.4,0.8-0.5,1.2c-0.3,1.4-0.2,2.8,0.6,4.1c0.2,0.4,0.6,0.6,1.1,0.6
		c0.2,0,0.5-0.1,0.6-0.2c0.6-0.4,0.8-1.2,0.5-1.7c-0.4-0.6-0.5-1.4-0.3-2.1s0.6-1.3,1.3-1.7c0.6-0.4,0.8-1.2,0.5-1.7
		S14,34,13.5,34.1C9.7,34,6.7,31,6.7,27.3c0-3.8,3.1-6.8,6.8-6.8c0.1,0,0.1,0,0.2,0l1,0.1l0.4-0.8c0.9-2,2.9-3.1,5-3.1
		c0.7,0,1.3,0.2,2,0.4l0.9,0.3l0.6-0.8c1.7-2.2,4.2-3.5,7-3.5c1.4,0,2.9,0.4,4.2,1l0.8,0.4l0.6-0.6c1-0.9,2.3-1.3,3.6-1.3
		c1.1,0,2.2,0.3,3.1,0.9c-1.9,1.5-3.1,3.8-3.1,6.4c0,0.7,0.6,1.3,1.3,1.3s1.3-0.6,1.3-1.3c0-2.1,1.2-3.9,2.8-4.9l0.4-0.2
		c0.8-0.3,1.6-0.6,2.4-0.6c2.4,0,4.4,1.5,5.3,3.7l0.3,0.9h0.9c4.2,0,7.8,3.4,8.1,7.6l0.1,0.9l0.8,0.2c2.5,0.9,4.2,3.2,4.2,5.9
		c0,1-0.2,2.1-0.8,3L66.4,37L66.6,37.6z M39.5,44.2c0-2.4-1.2-4.6-3.1-5.9l0,0c-3.4-1.6-5.7-4.8-6.2-8.5c-0.1-0.6,0.3-1.1,0.9-1.2
		s1.1,0.3,1.2,0.9c0.5,3.4,2.8,6.2,6,7.3c2.3,0.8,4.7,0.6,6.9-0.4c2.2-1,3.8-2.9,4.6-5.2c0.2-0.6,0.8-0.8,1.3-0.6
		c0.6,0.2,0.8,0.8,0.6,1.3c-0.9,2.8-3,5-5.7,6.3c-1.5,0.7-3.1,1.1-4.8,1.1c-0.3,0-0.6,0-1-0.1c0.9,1.4,1.4,3.1,1.4,4.9
		c0,0.6-0.5,1-1,1S39.5,44.7,39.5,44.2z M59,32.4c0,0.6-0.5,1-1,1s-1-0.5-1-1c0-4.6-3.8-8.4-8.4-8.4c-0.6,0-1-0.5-1-1
		c0-0.6,0.5-1,1-1C54.3,21.9,59,26.6,59,32.4z M31.9,21.8c0-0.6,0.5-1,1-1c4.5,0,8.2,3.6,8.2,8.2c0,0.6-0.5,1-1,1s-1-0.5-1-1
		c0-3.4-2.8-6.1-6.1-6.1C32.4,22.8,31.9,22.4,31.9,21.8z M29.5,45.2c-0.2,0.3-0.6,0.5-0.9,0.5c-0.2,0-0.4-0.1-0.6-0.2
		c-0.5-0.3-0.6-0.9-0.3-1.4c1.7-2.8,0.9-6.4-1.9-8.1c-0.5-0.3-0.6-0.9-0.3-1.4c0.3-0.5,0.9-0.6,1.4-0.3
		C30.7,36.6,31.8,41.5,29.5,45.2z M28.5,27.1c-1.6,0-3-0.7-4.1-1.7c-1.8,2.6-4.8,4-7.8,4c-1.6,0-3.2-0.4-4.7-1.3
		c-0.5-0.3-0.6-0.9-0.4-1.4c0.3-0.5,0.9-0.6,1.4-0.4c3.5,2,8.1,0.9,10.2-2.8c-0.4-0.9-0.6-1.8-0.6-2.8c0-0.6,0.5-1,1-1s1,0.5,1,1
		c-0.1,2.2,1.7,4.1,3.9,4.2c0.6,0,1,0.5,1,1C29.6,26.7,29.1,27.1,28.5,27.1L28.5,27.1z M52.5,47.1c0.5,0.3,0.6,0.9,0.2,1.4
		c-2,2.8-5.1,4.4-8.3,4.4c-2,0-3.9-0.6-5.7-1.7c-0.5-0.3-0.6-0.9-0.2-1.4c0.3-0.5,0.9-0.6,1.4-0.2c1.8,1.2,3.9,1.7,6.1,1.3
		c2.1-0.4,3.9-1.6,5.2-3.4C51.4,46.9,52.1,46.8,52.5,47.1z"/>
</g>
</svg>
