<?xml version="1.0" encoding="utf-8"?>
<!-- Generator: Adobe Illustrator 21.1.0, SVG Export Plug-In . SVG Version: 6.00 Build 0)  -->
<svg version="1.1" id="Layer_1" xmlns="http://www.w3.org/2000/svg" xmlns:xlink="http://www.w3.org/1999/xlink" x="0px" y="0px"
	 viewBox="0 0 70 70" style="enable-background:new 0 0 70 70;" xml:space="preserve">
<style type="text/css">
	.st0{fill:#EA3910;}
	.st1{fill:#EA3910;stroke:#000000;stroke-width:2.75;stroke-linecap:round;stroke-linejoin:round;stroke-miterlimit:10;}
</style>
<g>
	<g>
		<path class="st0" d="M54,30.2c-0.4,0-0.9-0.3-1-0.7c-0.9-1.9-2.2-3-4.6-3.5c-0.6-0.1-1-0.7-0.9-1.4c0.1-0.6,0.7-1,1.4-0.9
			c3.1,0.7,5,2.2,6.1,4.8c0.3,0.6,0,1.3-0.6,1.5C54.3,30.1,54.1,30.2,54,30.2z"/>
	</g>
	<g>
		<path class="st0" d="M59.6,51.6c-0.3,0-0.6-0.1-0.8-0.3c-0.2-0.2-0.3-0.5-0.3-0.8c0-0.3,0.1-0.6,0.3-0.8c0.4-0.4,1.2-0.4,1.6,0
			c0.2,0.2,0.3,0.5,0.3,0.8c0,0.3-0.1,0.6-0.3,0.8C60.2,51.5,59.9,51.6,59.6,51.6z"/>
	</g>
	<g>
		<path class="st0" d="M61.3,47.8c-0.1,0-0.2,0-0.4-0.1c-0.6-0.2-0.9-0.9-0.7-1.5c0.4-1.2,0.7-2.5,1-3.7c0.5-2.8,0.4-5.5-0.2-8.1
			c-0.7-3.2-2.4-6.2-4.8-8.9c-1.5-1.5-3.3-2.9-5.1-3.9c-1.4-0.8-2.9-1.5-4.5-2c-1.3-0.4-2.4-0.6-3.1-0.7C42.8,19,42.4,19,42.4,19
			c-0.3,0-0.6-0.1-0.8-0.3c-0.2-0.2-0.3-0.5-0.3-0.8V6.5c0-0.6,0.5-1.1,1.1-1.1c0.6,0,1.1,0.5,1.1,1.1v10.3c0.1,0,0.2,0,0.3,0
			c0.8,0.1,2,0.3,3.5,0.8c1.7,0.5,3.3,1.3,4.9,2.2c2,1.2,3.9,2.6,5.6,4.3c2.7,3,4.5,6.3,5.3,9.9c0.7,2.9,0.7,5.9,0.2,9
			c-0.2,1.4-0.6,2.7-1,4.1C62.2,47.5,61.8,47.8,61.3,47.8z"/>
	</g>
	<g>
		<path class="st0" d="M10.4,70.1c-0.6,0-1.1-0.5-1.1-1.1c0,0,0-0.3,0-0.9c0-0.7,0.1-1.5,0.2-2.3c0.2-1.1,0.4-2.3,0.7-3.4
			c0.4-1.4,1-2.8,1.6-4.2c0.1-0.3,0.4-0.5,0.7-0.6c0.3-0.1,0.6-0.1,0.9,0.1c0,0,0.6,0.3,1.7,0.8c1.4,0.7,2.9,1.3,4.4,1.9
			c2,0.8,4,1.5,5.8,2.1c2.3,0.7,4.3,1.1,6.1,1.2c0,0,1.1,0.1,2.9,0.1c1.6,0,4.2-0.2,7-1c3.2-0.8,6.1-2,8.7-3.7
			c2.3-1.5,4.4-3.4,6.1-5.6c0.4-0.5,1.1-0.6,1.6-0.2c0.5,0.4,0.6,1.1,0.2,1.6c-1.9,2.4-4.1,4.4-6.7,6c-2.8,1.8-6,3.2-9.4,4
			c-3.1,0.8-5.8,1-7.5,1c-1.9,0.1-3.1-0.1-3.1-0.1c-1.9-0.2-4.1-0.6-6.5-1.3c-1.9-0.6-4-1.3-6.1-2.1c-1.5-0.6-3-1.3-4.5-2
			c-0.3-0.1-0.5-0.2-0.7-0.3c-0.4,0.9-0.7,1.8-1,2.7c-0.3,1-0.5,2.1-0.7,3.1c-0.1,0.9-0.2,1.6-0.2,2.1c0,0.4,0,0.7,0,0.7
			C11.6,69.5,11.1,70,10.4,70.1C10.5,70.1,10.5,70.1,10.4,70.1z"/>
	</g>
	<g>
		<path class="st0" d="M1.1,64.9c-0.6,0-1.1-0.5-1.1-1.1c0-0.2-0.7-16,17-24.8c16.3-8.2,15-25.2,15-25.4c0,0,0-0.1,0-0.1V1.3
			c0-0.6,0.5-1.1,1.1-1.1s1.1,0.5,1.1,1.1v12.1c0.1,1.2,0.9,19-16.3,27.6C1.7,49.2,2.3,63.1,2.3,63.7C2.3,64.3,1.8,64.9,1.1,64.9
			C1.2,64.9,1.2,64.9,1.1,64.9z"/>
	</g>
	<g>
		<path class="st0" d="M35.2,57.2L35.2,57.2c-2.1,0-3.6-0.3-3.6-0.3c-5.2-0.9-13.3-4.6-13.6-4.7c-0.4-0.2-0.6-0.5-0.7-0.9
			s0.1-0.8,0.4-1c2.2-2,5.7-4.6,8.6-6.1c1.1-0.6,2.2-1.2,3.2-1.8c0.2-0.1,0.4-0.2,0.6-0.2l0,0l23,0c0.4,0,0.7,0.2,0.9,0.4
			c0.2,0.3,0.3,0.6,0.2,1c-0.9,3.5-2.7,5.9-2.8,5.9C46.3,56.2,39,57.2,35.2,57.2z M20.5,50.8c2.6,1.1,7.8,3.2,11.4,3.8
			c0,0,1.3,0.3,3.2,0.3c4.2,0,10.1-1.2,14.3-6.8c0,0,1.1-1.5,2-3.7l-21.1,0c-1,0.6-2,1.2-3.1,1.8C25.1,47.3,22.5,49.2,20.5,50.8z"/>
	</g>
</g>
</svg>
