<?xml version="1.0" encoding="utf-8"?>
<!-- Generator: Adobe Illustrator 21.1.0, SVG Export Plug-In . SVG Version: 6.00 Build 0)  -->
<svg version="1.1" id="head.svg" xmlns="http://www.w3.org/2000/svg" xmlns:xlink="http://www.w3.org/1999/xlink" x="0px" y="0px"
	 viewBox="0 0 319.4 380.8" style="enable-background:new 0 0 319.4 380.8;" xml:space="preserve">
<style type="text/css">
	.st0{fill-rule:evenodd;clip-rule:evenodd;fill:#EBF2F8;}
	.st1{fill:#EBF2F8;}
</style>
<path id="head-bg" class="st0" d="M294.7,211.5c-3.4,5.2-6.9,9.6-10,13.1c-20.8,23.3-31.5,39.1-34.3,70.9
	c-1.3,14.5,3.6,29.7,10.6,44.6c8.9,18.9-4.9,40.7-25.8,40.7H133.7c-14.7,0-26.8-11.1-28.4-25.7c0-0.1,0-0.2,0-0.2
	c-0.9-7.4-4.7-11.5-11.7-28.2c-5.7-13.4-11.4-14.2-20.1-14.8c-13-1-32.7,2.7-45-11c-9-10-4.8-26.1-2.8-31.7c2-5.7-2.4-6.8-6.2-11.2
	c-2-2.3-1-6,0.5-8.8c1.1-2.3,0.6-5-1.3-6.7c-1.5-1.4-3.2-3.6-4.5-7.2c-3.2-8.9,4.3-9.2,5.6-17c1.3-7.8-7.3-7.4-16.3-15.4
	c-9-8,1.3-16.2,8-24c6.7-7.8,15-15,20.6-22.4c6.4-8.5,5.8-20.1,4.6-27.6c-4.2-28.1,10-48.1,17.8-64.1c1.7-3.4,3.9-6.8,6-10
	c15-23,38.1-43.8,82.5-51.9c26-4.7,62.4-1.6,95.4,12.3c0.8,0.3,1.6,0.7,2.3,1c27.3,12,51.9,31.5,65.9,60.3
	c6.4,13.3,10.2,26.5,11.8,39.2c0,0.1,0,0.2,0,0.2C323.4,155.2,309.1,189.9,294.7,211.5z"/>
<g id="blue-4">
	<g>
		<defs>
			<path id="SVGID_1_" d="M133.7,379.8c-6.7,0-13.1-2.4-18.1-6.9l19.1-80.3c0.6-2.6,2.8-4.3,5.5-4.3c1.3,0,2.5,0.4,3.5,1.3
				c6,5,12.2,8.5,17,9.6c1.6,0.4,3.2,0.6,4.8,0.6c9.5,0,17-7,19.6-18.2c3-13.2-2.7-23.8-14.3-26.4c-1.8-0.4-4-0.6-6.4-0.6
				c-4,0-8.5,0.6-13,1.6c-0.4,0.1-0.9,0.2-1.3,0.2c-1.7,0-3.3-0.8-4.4-2.1c-1.1-1.3-1.4-3-1-4.6l12.6-55.3l55.3,12.6
				c1.9,0.4,3.3,1.7,4,3.5c0.6,1.8,0.3,3.8-0.9,5.4c-4.7,5.9-8.2,12.2-9.3,17c-2.6,11.6,4.5,21.4,17.6,24.4c2.3,0.5,4.5,0.8,6.7,0.8
				c10.2,0,17.6-5.6,19.7-15.1c1.1-4.7,0.6-11.8-1.3-19.5c-0.4-1.6,0-3.3,1-4.7c1.1-1.4,2.7-2.2,4.4-2.2c0.4,0,0.8,0,1.3,0.1
				l29.1,6.6c-0.2,0.2-0.4,0.5-0.6,0.7c-21.7,24.3-31.8,40.4-34.5,71.5c-1.1,12.8,2.3,27.2,10.7,45.1c4,8.6,3.4,18.5-1.7,26.5
				c-5.1,8-13.8,12.8-23.2,12.8H133.7z"/>
		</defs>
		<clipPath id="SVGID_2_">
			<use xlink:href="#SVGID_1_"  style="overflow:visible;"/>
		</clipPath>
		<g style="display:none;clip-path:url(#SVGID_2_);">
			
				<image style="display:inline;overflow:visible;" width="943" height="775" xlink:href="A783F102.jpg"  transform="matrix(0.24 0 0 0.24 83.716 194.1905)">
			</image>
		</g>
		<g style="clip-path:url(#SVGID_2_);">
			
				<image style="overflow:visible;" width="182" height="193" xlink:href="A783F106.jpg"  transform="matrix(1 0 0 1 110.476 190.3105)">
			</image>
		</g>
	</g>
	<g>
		<path class="st1" d="M158.6,196.6l53.3,12.2c1.2,0.3,2.1,1.1,2.5,2.2c0.4,1.2,0.2,2.4-0.6,3.4c-5,6.2-8.5,12.7-9.7,17.9
			c-2.9,12.7,4.8,23.5,19.1,26.8c2.4,0.6,4.8,0.8,7.2,0.8c11.2,0,19.3-6.2,21.7-16.6c1.2-5,0.7-12.5-1.3-20.4
			c-0.4-1.4,0.2-2.5,0.6-2.9c0.7-0.9,1.7-1.4,2.8-1.4c0.3,0,0.5,0,0.8,0.1l25.8,5.9c-20.9,23.7-30.7,40-33.4,70.8
			c-1.2,13.2,2.3,27.9,10.9,46.1c3.8,8,3.2,17.2-1.5,24.6c-4.7,7.4-12.8,11.8-21.5,11.8H133.7c-5.8,0-11.4-2-15.9-5.6l18.8-79.2
			c0.4-1.9,2.1-2.8,3.5-2.8c0.6,0,1.4,0.1,2.2,0.8c6.3,5.2,12.7,8.9,17.8,10c1.8,0.4,3.5,0.6,5.2,0.6c10.5,0,18.7-7.6,21.5-19.7
			c3.3-14.3-3.1-25.9-15.8-28.8c-2-0.5-4.3-0.7-6.8-0.7c-4.1,0-8.8,0.6-13.5,1.7c-0.3,0.1-0.6,0.1-0.9,0.1c-1.1,0-2.1-0.5-2.8-1.4
			c-0.4-0.5-1-1.5-0.7-2.9L158.6,196.6 M156.3,193l-12.8,56.3c-1,4.2,2.3,8,6.4,8c0.5,0,1-0.1,1.5-0.2c4.4-1,8.8-1.6,12.8-1.6
			c2.3,0,4.4,0.2,6.2,0.6c11.9,2.7,16.2,13.6,13.6,25.3c-2.3,10.1-9.1,17.4-18.6,17.4c-1.5,0-3-0.2-4.6-0.5
			c-4.9-1.1-11.1-4.8-16.6-9.4c-1.2-1-2.7-1.5-4.1-1.5c-2.9,0-5.7,1.9-6.4,5.1l-19.2,80.9c5.1,4.7,11.8,7.5,19.3,7.5h101.5
			c20.9,0,34.7-21.8,25.8-40.7c-7-14.9-11.9-30-10.6-44.6c2.8-31.8,13.5-47.6,34.3-70.9c0.6-0.6,1.1-1.3,1.7-2l-30.7-7
			c-0.5-0.1-1-0.2-1.5-0.2c-4.1,0-7.4,3.9-6.3,8.1c1.7,6.9,2.4,14.1,1.3,19c-2.2,9.7-9.8,14.3-18.8,14.3c-2.1,0-4.3-0.3-6.5-0.8
			c-11.6-2.6-19.6-11.2-16.9-23.2c1.1-4.9,4.7-11.1,9.1-16.6c3-3.8,1.2-9.4-3.6-10.5L156.3,193L156.3,193z"/>
	</g>
</g>
<g id="yelloow-3">
	<g>
		<defs>
			<path id="SVGID_3_" d="M230.6,256.3c-2.1,0-4.2-0.3-6.4-0.7c-12.4-2.8-19-11.9-16.6-22.7c1-4.6,4.4-10.5,9.3-16.4
				c1.5-1.8,2-4.3,1.2-6.6c-0.8-2.3-2.7-4-5.1-4.6l-56.3-12.8l12.8-56.3c0.5-2.1,0-4.2-1.3-5.9c-1.3-1.7-3.3-2.6-5.4-2.6
				c-0.6,0-1.1,0.1-1.7,0.2c-4.8,1.2-9.4,1.8-13.3,1.8c-2.1,0-3.9-0.2-5.5-0.5c-5.5-1.3-9.7-4.4-12-9.1c-2.1-4.3-2.6-9.9-1.3-15.7
				c2.4-10.5,9.4-17.1,18.2-17.1c1.5,0,3,0.2,4.5,0.5c4.6,1,10.8,4.4,16.5,9c1.3,1,2.8,1.6,4.4,1.6c3.3,0,6-2.2,6.8-5.4l20.4-89.9
				c13.5,2.5,26.6,6.3,38.7,11.4l0.3,0.1c0.7,0.3,1.4,0.6,2,0.9C271.5,29,294.4,49.9,307,76.1c6.1,12.7,10.1,25.9,11.9,39.4l0,0.2
				c5.9,45.4-14.7,82.1-23.8,95.8c-1.8,2.7-4,5.1-6.2,7.6c-1,1.1-1.9,2.1-2.7,3.1l-30.1-7.1c-0.5-0.1-1.1-0.2-1.6-0.2
				c-2.1,0-4,1-5.4,2.6c-1.3,1.7-1.8,3.9-1.3,6c1.7,7.1,2,14.2,1,18.8C246.9,251.1,240.1,256.3,230.6,256.3L230.6,256.3z"/>
		</defs>
		<clipPath id="SVGID_4_">
			<use xlink:href="#SVGID_3_"  style="overflow:visible;"/>
		</clipPath>
		<g style="display:none;clip-path:url(#SVGID_4_);">
			
				<image style="display:inline;overflow:visible;" width="818" height="1091" xlink:href="A783F101.jpg"  transform="matrix(0.24 0 0 0.24 123.116 -8.954503e-02)">
			</image>
		</g>
		<g style="clip-path:url(#SVGID_4_);">
			
				<image style="overflow:visible;" width="231" height="261" xlink:href="A783F103.jpg"  transform="matrix(1 0 0 1 112.476 -3.6895)">
			</image>
		</g>
	</g>
	<g>
		<path class="st1" d="M201.9,6.4c12.5,2.4,24.5,6,35.7,10.8l0.3,0.1c0.7,0.3,1.3,0.6,2,0.9c30,13.2,52.5,33.7,64.9,59.4
			c6,12.4,9.9,25.4,11.6,38.6l0,0.2c5.7,44.5-14.4,80.6-23.3,94.1c-1.6,2.3-3.6,4.5-5.6,6.6c-0.7,0.8-1.5,1.5-2.1,2.3l-28.5-6.5
			c-0.7-0.2-1.4-0.2-2.1-0.2c-2.9,0-5.6,1.3-7.4,3.6c-1.8,2.3-2.5,5.3-1.8,8.2c1.6,6.8,2,13.4,1,17.6c-1.7,7.6-7.5,12-15.9,12
			c-1.9,0-3.8-0.2-5.8-0.7c-8.4-1.9-17.2-8.2-14.6-19.6c0.9-4.1,4.2-9.8,8.8-15.3c2.1-2.5,2.7-5.9,1.7-9.1c-1.1-3.2-3.7-5.5-6.9-6.3
			l-53.8-12.3l12.3-53.8c0.7-2.9,0-5.8-1.8-8.1c-1.8-2.3-4.5-3.6-7.4-3.6c-0.8,0-1.6,0.1-2.3,0.3c-4.5,1.1-9,1.7-12.7,1.7
			c-1.9,0-3.5-0.2-4.9-0.5c-4.7-1.1-8.3-3.7-10.2-7.7c-1.9-3.8-2.3-8.8-1.1-14c1.7-7.3,6.6-15.1,15.7-15.1c1.3,0,2.6,0.2,3.9,0.5
			c4.2,1,10,4.1,15.4,8.5c1.7,1.4,3.8,2.1,6,2.1c4.5,0,8.3-3,9.3-7.4L201.9,6.4 M199.6,2.9l-20.5,90.3c-0.7,3.2-3.5,5.1-6.4,5.1
			c-1.4,0-2.9-0.5-4.1-1.5c-5.5-4.4-11.8-8-16.6-9.1c-1.6-0.4-3.1-0.5-4.6-0.5c-9.5,0-16.3,7.3-18.6,17.4
			c-2.7,11.6,1.6,22.5,13.6,25.3c1.6,0.4,3.5,0.5,5.6,0.5c4.1,0,8.8-0.7,13.4-1.8c0.5-0.1,1.1-0.2,1.6-0.2c4,0,7.3,3.8,6.3,8
			L156.4,193l56.7,12.9c4.7,1.1,6.7,6.8,3.6,10.5c-4.6,5.5-8.3,11.7-9.4,16.6c-2.7,11.9,5.3,20.5,16.9,23.2c2.2,0.5,4.4,0.8,6.5,0.8
			c9,0,16.6-4.6,18.8-14.3c1.1-4.9,0.6-12.1-1-18.9c-1-4.2,2.2-8.1,6.3-8.1c0.5,0,1,0.1,1.5,0.2l30.3,6.9c2.7-3.3,6.5-6.7,9.1-10.6
			c9.1-13.7,29.7-50.6,23.8-96.1l0-0.2c-1.8-13.5-5.8-26.8-11.9-39.5c-12.7-26.3-35.6-47.3-66.3-60.8c-0.7-0.3-1.3-0.6-2-0.9
			l-0.3-0.1C226.4,9.2,213.1,5.3,199.6,2.9L199.6,2.9z"/>
	</g>
</g>
<g id="red-2">
	<g>
		<defs>
			<path id="SVGID_5_" d="M114.1,372.4c-4.7-4.6-7.6-10.7-8.3-17.3c0-0.1,0-0.2,0-0.2c-0.5-4.5-2.2-7.9-4.9-13.5
				c-1.8-3.7-4-8.2-6.8-14.8c-5.6-13.3-11.1-14.3-20.3-15c-2.8-0.2-5.8-0.2-9.1-0.2c-12.3,0-26.1,0-35.8-10.7
				c-9.6-10.6-4-28.1-2.7-31.5c1.6-4.3-0.5-6.1-3.2-8.5c-1-0.9-2.1-1.9-3.1-3.1c-1.9-2.3-0.8-5.9,0.5-8.5c1.2-2.4,0.6-5.3-1.4-7.1
				c-1.9-1.6-3.4-4-4.5-7.1c-1.8-5.1-0.1-7.2,2-9.8c1.5-1.8,3.1-3.8,3.6-7.1c0.8-5.1-2.5-6.9-7-9.4c-2.7-1.5-6-3.3-9.4-6.3
				c-2.2-1.9-3.3-4-3.4-6.1c-0.2-4.6,4.1-9.4,8.3-13.9c1.1-1.2,2.1-2.3,3.1-3.5c2.9-3.4,6.2-6.8,9.4-10c1.7-1.7,3.5-3.5,5.1-5.3
				l30.3,6.7c0.5,0.1,1,0.2,1.5,0.2c2.1,0,4-0.9,5.3-2.6c1.3-1.7,1.8-3.8,1.3-5.9c-1.7-7.2-2-14.2-1-18.8c2-8.8,8.9-14.1,18.5-14.1
				c2.1,0,4.2,0.3,6.4,0.8c5.8,1.3,10.7,4.2,13.7,8c3.2,4.1,4.3,9.3,3,14.8c-1,4.6-4.5,10.6-9.4,16.5c-1.5,1.8-2,4.2-1.2,6.5
				c0.8,2.3,2.6,4,5,4.5l56.4,12.9l-12.9,56.4c-0.5,2.1,0,4.2,1.3,5.8c1.3,1.6,3.2,2.6,5.3,2.6c0.6,0,1.1-0.1,1.7-0.2
				c4.8-1.2,9.4-1.8,13.4-1.8c2.1,0,4,0.2,5.5,0.5c11,2.5,16.2,12.3,13.3,24.9c-2.4,10.6-9.4,17.2-18.3,17.2c-1.5,0-3-0.2-4.5-0.5
				c-4.6-1.1-10.8-4.4-16.5-9.1c-1.3-1-2.8-1.5-4.3-1.5c-3.2,0-5.9,2.2-6.7,5.3L114.1,372.4z"/>
		</defs>
		<clipPath id="SVGID_6_">
			<use xlink:href="#SVGID_5_"  style="overflow:visible;"/>
		</clipPath>
		<g style="display:none;clip-path:url(#SVGID_6_);">
			
				<image style="display:inline;overflow:visible;" width="788" height="1007" xlink:href="A783F100.jpg"  transform="matrix(0.24 0 0 0.24 0.756 128.8305)">
			</image>
		</g>
		<g transform="matrix(1 0 0 1 0 7.629395e-06)" style="clip-path:url(#SVGID_6_);">
			
				<image style="overflow:visible;" width="1025" height="1070" xlink:href="A783F10E.jpg"  transform="matrix(0.24 0 0 0.24 -61.044 126.3905)">
			</image>
		</g>
	</g>
	<g>
		<path class="st1" d="M82.2,131.8c1.9,0,3.8,0.2,5.8,0.7c5.2,1.2,9.5,3.7,12.1,7c2.7,3.5,3.6,7.8,2.5,12.6
			c-0.9,4.1-4.2,9.8-8.8,15.3c-2.1,2.5-2.7,5.9-1.7,9.1c1.1,3.2,3.7,5.5,6.9,6.3l53.8,12.3l-12.3,53.8c-0.7,2.9,0,5.8,1.8,8.1
			c1.8,2.3,4.5,3.6,7.4,3.6c0.8,0,1.6-0.1,2.3-0.3c4.5-1.1,9-1.7,12.7-1.7c1.9,0,3.6,0.2,4.9,0.5c11.4,2.6,13.2,13.3,11.3,21.7
			c-1.7,7.3-6.7,15.1-15.7,15.1c-1.3,0-2.6-0.2-3.9-0.5c-4.2-1-10-4.2-15.4-8.5c-1.7-1.4-3.8-2.1-6-2.1c-4.5,0-8.3,3-9.3,7.3
			l-18.1,74.5c-2.3-3.5-3.8-7.5-4.3-11.8l0,0.1c0-0.1,0-0.2,0-0.3c-0.6-5-2.3-8.5-5.2-14.4c-1.8-3.6-4-8.2-6.7-14.6
			c-6.1-14.4-12.6-15.9-22.6-16.7c-2.9-0.2-6-0.2-9.3-0.2c-11.7,0-24.9,0-33.7-9.8c-8.5-9.5-3.3-25.6-2.2-28.7c2.2-6-1.2-9-3.9-11.4
			c-1-0.8-1.9-1.7-2.9-2.8c-0.7-0.9-0.4-3,0.9-5.6c1.7-3.5,0.9-7.7-2-10.3c-1.5-1.3-2.8-3.3-3.7-6c-1.3-3.6-0.4-4.7,1.6-7.1
			c1.6-1.9,3.6-4.3,4.2-8.3c1.1-6.9-3.7-9.6-8.4-12.2c-2.7-1.5-5.8-3.2-8.9-5.9c-1.6-1.4-2.4-2.8-2.5-4.3c-0.2-3.5,3.8-7.8,7.6-12
			c1.1-1.2,2.2-2.4,3.2-3.6c2.9-3.4,6.1-6.7,9.2-9.8c1.4-1.4,2.8-2.8,4.1-4.2l28.8,6.3c0.7,0.2,1.4,0.2,2.1,0.2
			c2.9,0,5.6-1.3,7.4-3.6c1.8-2.3,2.5-5.3,1.8-8.2c-1.6-6.8-2-13.4-1-17.6C68,136.2,73.8,131.8,82.2,131.8 M82.2,128.8
			c-9,0-16.6,4.7-18.8,14.3c-1.1,4.9-0.6,12.1,1,19c1,4.2-2.2,8.1-6.3,8.1c-0.5,0-1-0.1-1.5-0.2l-30.4-6.7c-4.7,5-10,10.1-14.6,15.4
			c-6.7,7.8-17,16-8,24c9,8,17.5,7.6,16.3,15.4c-1.3,7.8-8.8,8.1-5.6,17c1.3,3.6,3,5.8,4.6,7.2c1.9,1.7,2.4,4.4,1.3,6.7
			c-1.4,2.9-2.5,6.5-0.5,8.8c3.8,4.5,8.3,5.6,6.2,11.2c-2.1,5.7-6.2,21.7,2.8,31.8c12.3,13.7,32,10,45,11
			c8.7,0.7,14.4,1.4,20.1,14.9c7,16.7,10.9,20.8,11.7,28.2c0,0.1,0,0.1,0,0.2c0.8,7,4,13.3,8.8,17.8l19.5-80.2
			c0.7-3.2,3.5-5.1,6.4-5.1c1.4,0,2.9,0.5,4.2,1.5c5.5,4.4,11.8,8,16.7,9.1c1.6,0.4,3.1,0.5,4.6,0.5c9.5,0,16.3-7.3,18.6-17.4
			c2.7-11.7-1.6-22.6-13.6-25.3c-1.6-0.4-3.5-0.5-5.6-0.5c-4.1,0-8.8,0.7-13.4,1.8c-0.5,0.1-1.1,0.2-1.6,0.2c-4,0-7.3-3.8-6.3-8
			l12.9-56.7l-56.7-12.9c-4.7-1.1-6.7-6.8-3.6-10.5c4.6-5.5,8.3-11.7,9.4-16.6c2.7-11.9-5.3-20.5-16.9-23.2
			C86.4,129,84.3,128.8,82.2,128.8L82.2,128.8z"/>
	</g>
</g>
<g id="violet-1">
	<g>
		<defs>
			<path id="SVGID_7_" d="M99.8,179.8c-2.1-0.5-3.8-2-4.5-4c-0.7-2.1-0.3-4.3,1.1-6.1c4.7-5.8,8.1-12.1,9.2-16.8
				c2.6-11.2-4.2-20.5-17.2-23.6c-2.1-0.5-4.2-0.8-6.3-0.8c-9.7,0-17,5.6-19.1,14.6c-1.2,5.4-0.1,13.5,1,19.2
				c0.4,1.9-0.1,3.9-1.3,5.4c-1.2,1.5-3,2.3-4.9,2.3c-0.5,0-1-0.1-1.4-0.2l-29.8-6.8c1.3-1.5,2.4-3,3.4-4.5c0.5-0.7,1-1.4,1.5-2.1
				c4.9-6.5,6.5-15.9,4.7-27.9c-3.5-23.7,6.1-41.8,13.8-56.4c1.5-2.7,2.8-5.3,4.1-7.9c1.6-3.2,3.6-6.4,5.6-9.4l0.4-0.6
				c18.7-28.6,45-45.2,82.7-52c7.5-1.4,15.8-2.1,24.6-2.1c10.3,0,21,1,31.7,2.8L178.8,93c-0.7,2.9-3.2,4.9-6.2,4.9
				c-1.4,0-2.8-0.5-3.9-1.4c-5.4-4.5-12-8.1-17.1-9.2c-1.4-0.3-2.8-0.5-4.2-0.5c-10.4,0-17.1,9-18.9,17.4
				c-2.9,13.1,2.4,23.2,13.6,25.7c1.8,0.4,3.9,0.6,6.2,0.6c3.9,0,8.4-0.6,12.9-1.6c0.5-0.1,1-0.2,1.5-0.2c1.9,0,3.7,0.9,4.9,2.4
				c1.2,1.5,1.6,3.4,1.2,5.2l-12.8,56.3L99.8,179.8z"/>
		</defs>
		<clipPath id="SVGID_8_">
			<use xlink:href="#SVGID_7_"  style="overflow:visible;"/>
		</clipPath>
		<g style="display:none;clip-path:url(#SVGID_8_);">
			
				<image style="display:inline;overflow:visible;" width="873" height="828" xlink:href="A783F105.jpg"  transform="matrix(0.24 0 0 0.24 0.756 0.9105)">
			</image>
		</g>
		<g style="clip-path:url(#SVGID_8_);">
			
				<image style="overflow:visible;" width="883" height="968" xlink:href="A783F107.jpg"  transform="matrix(0.24 0 0 0.24 -6.964 -38.9695)">
			</image>
		</g>
	</g>
	<g>
		<path class="st1" d="M167.6,0l0,3h0c9.3,0,18.8,0.8,28.4,2.3l-19.8,87.1c-0.4,1.9-2.1,2.8-3.5,2.8c-0.6,0-1.4-0.1-2.2-0.8
			c-5.7-4.8-12.7-8.5-18.2-9.8c-1.6-0.4-3.2-0.6-4.8-0.6c-11.8,0-19.5,10.1-21.5,19.5c-3.2,14.5,3.1,26.1,15.6,29
			c2,0.5,4.3,0.7,6.8,0.7c4.1,0,8.8-0.6,13.5-1.7c0.3-0.1,0.6-0.1,0.9-0.1c1.1,0,2.1,0.5,2.8,1.4c0.4,0.5,1,1.5,0.7,3l-12.2,53.6
			l-53.6-12.2c-1.2-0.3-2.1-1.1-2.5-2.3c-0.4-1.2-0.2-2.5,0.6-3.5c5-6.2,8.6-12.8,9.7-17.9c2.9-12.6-4.8-23.4-19.2-26.9
			c-2.3-0.6-4.6-0.8-6.9-0.8c-11,0-19.3,6.4-21.7,16.7c-1.1,4.7-0.7,11.6,1,20.4c0.3,1.6-0.4,2.7-0.8,3.2c-0.7,0.9-1.7,1.3-2.8,1.3
			c-0.3,0-0.6,0-0.8-0.1l-25.6-5.9c0.3-0.4,0.6-0.8,0.9-1.2c0.5-0.7,1-1.4,1.5-2c5.4-7.1,7.1-17.2,5.2-30
			c-3.4-22.8,6-40.5,13.5-54.7c1.5-2.8,2.9-5.4,4.1-7.9c1.5-3.1,3.5-6.2,5.5-9.1l0.4-0.6C74,38.3,94.9,13.8,143.4,5
			c7.4-1.3,15.5-2,24.1-2L167.6,0 M167.6,0c-8.9,0-17.2,0.7-24.7,2.1c-44.6,8.1-67.8,29-82.9,52.1c-2.1,3.2-4.3,6.6-6,10.1
			c-7.9,16.1-22.1,36.2-17.9,64.4c1.1,7.5,1.8,19.2-4.7,27.7c-1.7,2.3-3.2,4.6-5.3,6.9l30.3,6.9c0.5,0.1,1,0.2,1.5,0.2
			c4.1,0,7.4-3.8,6.5-8.1c-1.4-6.9-2.2-14.2-1-19.1c2.2-9.7,10-14.4,18.8-14.4c2,0,4.1,0.3,6.2,0.8c11.7,2.8,19.7,11.3,17,23.3
			c-1.1,4.9-4.7,11.2-9.2,16.7c-3.1,3.8-1.2,9.5,3.6,10.6l56.6,12.9l12.9-56.6c1-4.2-2.3-8-6.4-8c-0.5,0-1,0.1-1.5,0.2
			c-4.4,1-8.9,1.6-12.9,1.6c-2.3,0-4.4-0.2-6.2-0.6c-12-2.7-15.9-13.7-13.4-25.4c1.9-8.8,8.8-17.2,18.6-17.2c1.3,0,2.7,0.2,4.1,0.5
			c4.9,1.1,11.4,4.6,16.9,9.2c1.2,1,2.7,1.5,4.1,1.5c2.9,0,5.7-2,6.5-5.2l20.5-90.2C188.6,0.9,177.7,0,167.6,0L167.6,0z"/>
	</g>
</g>
</svg>
